<?xml version="1.0" encoding="utf-8"?>
<!DOCTYPE svg PUBLIC "-//W3C//DTD SVG 20010904//EN" "http://www.w3.org/TR/2001/REC-SVG-20010904/DTD/svg10.dtd">
<svg xmlns="http://www.w3.org/2000/svg" xml:space="preserve" xmlns:xlink="http://www.w3.org/1999/xlink" width="999" height="999" viewBox="0 0 999 999">
<desc></desc>
<rect width="999" height="999" fill="#ffffff" cx="0" cy="0" />
<defs>
<rect id="p" width="27" height="27" />
<circle id="circle" r="13.5" stroke-width="0" fill="000000" />
<rect id="hor" width="27" height="6" />
<rect id="ver" width="6" height="27" />
<polygon id="3d1" points="0,0 27,0 0,27" stroke-width="0" fill="000000" />
<polygon id="3d2" points="0,27 27,0 27,27" stroke-width="0" fill="#808080" />
</defs>
<g fill="#000000">
<use x="54" y="54" xlink:href="#p" />
<use x="81" y="54" xlink:href="#p" />
<use x="108" y="54" xlink:href="#p" />
<use x="135" y="54" xlink:href="#p" />
<use x="162" y="54" xlink:href="#p" />
<use x="189" y="54" xlink:href="#p" />
<use x="216" y="54" xlink:href="#p" />
<use x="270" y="54" xlink:href="#p" />
<use x="324" y="54" xlink:href="#p" />
<use x="378" y="54" xlink:href="#p" />
<use x="405" y="54" xlink:href="#p" />
<use x="459" y="54" xlink:href="#p" />
<use x="486" y="54" xlink:href="#p" />
<use x="540" y="54" xlink:href="#p" />
<use x="567" y="54" xlink:href="#p" />
<use x="594" y="54" xlink:href="#p" />
<use x="621" y="54" xlink:href="#p" />
<use x="648" y="54" xlink:href="#p" />
<use x="675" y="54" xlink:href="#p" />
<use x="756" y="54" xlink:href="#p" />
<use x="783" y="54" xlink:href="#p" />
<use x="810" y="54" xlink:href="#p" />
<use x="837" y="54" xlink:href="#p" />
<use x="864" y="54" xlink:href="#p" />
<use x="891" y="54" xlink:href="#p" />
<use x="918" y="54" xlink:href="#p" />
<use x="54" y="81" xlink:href="#p" />
<use x="216" y="81" xlink:href="#p" />
<use x="324" y="81" xlink:href="#p" />
<use x="351" y="81" xlink:href="#p" />
<use x="432" y="81" xlink:href="#p" />
<use x="459" y="81" xlink:href="#p" />
<use x="540" y="81" xlink:href="#p" />
<use x="621" y="81" xlink:href="#p" />
<use x="702" y="81" xlink:href="#p" />
<use x="756" y="81" xlink:href="#p" />
<use x="918" y="81" xlink:href="#p" />
<use x="54" y="108" xlink:href="#p" />
<use x="108" y="108" xlink:href="#p" />
<use x="135" y="108" xlink:href="#p" />
<use x="162" y="108" xlink:href="#p" />
<use x="216" y="108" xlink:href="#p" />
<use x="351" y="108" xlink:href="#p" />
<use x="405" y="108" xlink:href="#p" />
<use x="459" y="108" xlink:href="#p" />
<use x="486" y="108" xlink:href="#p" />
<use x="567" y="108" xlink:href="#p" />
<use x="594" y="108" xlink:href="#p" />
<use x="621" y="108" xlink:href="#p" />
<use x="648" y="108" xlink:href="#p" />
<use x="675" y="108" xlink:href="#p" />
<use x="756" y="108" xlink:href="#p" />
<use x="810" y="108" xlink:href="#p" />
<use x="837" y="108" xlink:href="#p" />
<use x="864" y="108" xlink:href="#p" />
<use x="918" y="108" xlink:href="#p" />
<use x="54" y="135" xlink:href="#p" />
<use x="108" y="135" xlink:href="#p" />
<use x="135" y="135" xlink:href="#p" />
<use x="162" y="135" xlink:href="#p" />
<use x="216" y="135" xlink:href="#p" />
<use x="324" y="135" xlink:href="#p" />
<use x="378" y="135" xlink:href="#p" />
<use x="405" y="135" xlink:href="#p" />
<use x="459" y="135" xlink:href="#p" />
<use x="540" y="135" xlink:href="#p" />
<use x="567" y="135" xlink:href="#p" />
<use x="621" y="135" xlink:href="#p" />
<use x="675" y="135" xlink:href="#p" />
<use x="702" y="135" xlink:href="#p" />
<use x="756" y="135" xlink:href="#p" />
<use x="810" y="135" xlink:href="#p" />
<use x="837" y="135" xlink:href="#p" />
<use x="864" y="135" xlink:href="#p" />
<use x="918" y="135" xlink:href="#p" />
<use x="54" y="162" xlink:href="#p" />
<use x="108" y="162" xlink:href="#p" />
<use x="135" y="162" xlink:href="#p" />
<use x="162" y="162" xlink:href="#p" />
<use x="216" y="162" xlink:href="#p" />
<use x="270" y="162" xlink:href="#p" />
<use x="351" y="162" xlink:href="#p" />
<use x="378" y="162" xlink:href="#p" />
<use x="405" y="162" xlink:href="#p" />
<use x="432" y="162" xlink:href="#p" />
<use x="594" y="162" xlink:href="#p" />
<use x="621" y="162" xlink:href="#p" />
<use x="648" y="162" xlink:href="#p" />
<use x="756" y="162" xlink:href="#p" />
<use x="810" y="162" xlink:href="#p" />
<use x="837" y="162" xlink:href="#p" />
<use x="864" y="162" xlink:href="#p" />
<use x="918" y="162" xlink:href="#p" />
<use x="54" y="189" xlink:href="#p" />
<use x="216" y="189" xlink:href="#p" />
<use x="270" y="189" xlink:href="#p" />
<use x="297" y="189" xlink:href="#p" />
<use x="324" y="189" xlink:href="#p" />
<use x="351" y="189" xlink:href="#p" />
<use x="432" y="189" xlink:href="#p" />
<use x="459" y="189" xlink:href="#p" />
<use x="513" y="189" xlink:href="#p" />
<use x="540" y="189" xlink:href="#p" />
<use x="567" y="189" xlink:href="#p" />
<use x="675" y="189" xlink:href="#p" />
<use x="702" y="189" xlink:href="#p" />
<use x="756" y="189" xlink:href="#p" />
<use x="918" y="189" xlink:href="#p" />
<use x="54" y="216" xlink:href="#p" />
<use x="81" y="216" xlink:href="#p" />
<use x="108" y="216" xlink:href="#p" />
<use x="135" y="216" xlink:href="#p" />
<use x="162" y="216" xlink:href="#p" />
<use x="189" y="216" xlink:href="#p" />
<use x="216" y="216" xlink:href="#p" />
<use x="270" y="216" xlink:href="#p" />
<use x="324" y="216" xlink:href="#p" />
<use x="378" y="216" xlink:href="#p" />
<use x="432" y="216" xlink:href="#p" />
<use x="486" y="216" xlink:href="#p" />
<use x="540" y="216" xlink:href="#p" />
<use x="594" y="216" xlink:href="#p" />
<use x="648" y="216" xlink:href="#p" />
<use x="702" y="216" xlink:href="#p" />
<use x="756" y="216" xlink:href="#p" />
<use x="783" y="216" xlink:href="#p" />
<use x="810" y="216" xlink:href="#p" />
<use x="837" y="216" xlink:href="#p" />
<use x="864" y="216" xlink:href="#p" />
<use x="891" y="216" xlink:href="#p" />
<use x="918" y="216" xlink:href="#p" />
<use x="297" y="243" xlink:href="#p" />
<use x="432" y="243" xlink:href="#p" />
<use x="486" y="243" xlink:href="#p" />
<use x="567" y="243" xlink:href="#p" />
<use x="594" y="243" xlink:href="#p" />
<use x="621" y="243" xlink:href="#p" />
<use x="648" y="243" xlink:href="#p" />
<use x="675" y="243" xlink:href="#p" />
<use x="81" y="270" xlink:href="#p" />
<use x="108" y="270" xlink:href="#p" />
<use x="135" y="270" xlink:href="#p" />
<use x="162" y="270" xlink:href="#p" />
<use x="189" y="270" xlink:href="#p" />
<use x="216" y="270" xlink:href="#p" />
<use x="243" y="270" xlink:href="#p" />
<use x="324" y="270" xlink:href="#p" />
<use x="486" y="270" xlink:href="#p" />
<use x="513" y="270" xlink:href="#p" />
<use x="567" y="270" xlink:href="#p" />
<use x="648" y="270" xlink:href="#p" />
<use x="675" y="270" xlink:href="#p" />
<use x="702" y="270" xlink:href="#p" />
<use x="783" y="270" xlink:href="#p" />
<use x="810" y="270" xlink:href="#p" />
<use x="918" y="270" xlink:href="#p" />
<use x="81" y="297" xlink:href="#p" />
<use x="135" y="297" xlink:href="#p" />
<use x="189" y="297" xlink:href="#p" />
<use x="243" y="297" xlink:href="#p" />
<use x="270" y="297" xlink:href="#p" />
<use x="405" y="297" xlink:href="#p" />
<use x="513" y="297" xlink:href="#p" />
<use x="540" y="297" xlink:href="#p" />
<use x="567" y="297" xlink:href="#p" />
<use x="648" y="297" xlink:href="#p" />
<use x="675" y="297" xlink:href="#p" />
<use x="729" y="297" xlink:href="#p" />
<use x="756" y="297" xlink:href="#p" />
<use x="837" y="297" xlink:href="#p" />
<use x="864" y="297" xlink:href="#p" />
<use x="891" y="297" xlink:href="#p" />
<use x="918" y="297" xlink:href="#p" />
<use x="54" y="324" xlink:href="#p" />
<use x="108" y="324" xlink:href="#p" />
<use x="189" y="324" xlink:href="#p" />
<use x="216" y="324" xlink:href="#p" />
<use x="243" y="324" xlink:href="#p" />
<use x="351" y="324" xlink:href="#p" />
<use x="378" y="324" xlink:href="#p" />
<use x="513" y="324" xlink:href="#p" />
<use x="594" y="324" xlink:href="#p" />
<use x="648" y="324" xlink:href="#p" />
<use x="756" y="324" xlink:href="#p" />
<use x="810" y="324" xlink:href="#p" />
<use x="864" y="324" xlink:href="#p" />
<use x="891" y="324" xlink:href="#p" />
<use x="81" y="351" xlink:href="#p" />
<use x="108" y="351" xlink:href="#p" />
<use x="243" y="351" xlink:href="#p" />
<use x="297" y="351" xlink:href="#p" />
<use x="351" y="351" xlink:href="#p" />
<use x="405" y="351" xlink:href="#p" />
<use x="459" y="351" xlink:href="#p" />
<use x="513" y="351" xlink:href="#p" />
<use x="540" y="351" xlink:href="#p" />
<use x="594" y="351" xlink:href="#p" />
<use x="702" y="351" xlink:href="#p" />
<use x="810" y="351" xlink:href="#p" />
<use x="837" y="351" xlink:href="#p" />
<use x="864" y="351" xlink:href="#p" />
<use x="891" y="351" xlink:href="#p" />
<use x="918" y="351" xlink:href="#p" />
<use x="81" y="378" xlink:href="#p" />
<use x="108" y="378" xlink:href="#p" />
<use x="162" y="378" xlink:href="#p" />
<use x="189" y="378" xlink:href="#p" />
<use x="216" y="378" xlink:href="#p" />
<use x="243" y="378" xlink:href="#p" />
<use x="270" y="378" xlink:href="#p" />
<use x="297" y="378" xlink:href="#p" />
<use x="324" y="378" xlink:href="#p" />
<use x="405" y="378" xlink:href="#p" />
<use x="486" y="378" xlink:href="#p" />
<use x="567" y="378" xlink:href="#p" />
<use x="594" y="378" xlink:href="#p" />
<use x="621" y="378" xlink:href="#p" />
<use x="648" y="378" xlink:href="#p" />
<use x="675" y="378" xlink:href="#p" />
<use x="702" y="378" xlink:href="#p" />
<use x="729" y="378" xlink:href="#p" />
<use x="783" y="378" xlink:href="#p" />
<use x="810" y="378" xlink:href="#p" />
<use x="837" y="378" xlink:href="#p" />
<use x="891" y="378" xlink:href="#p" />
<use x="918" y="378" xlink:href="#p" />
<use x="81" y="405" xlink:href="#p" />
<use x="108" y="405" xlink:href="#p" />
<use x="189" y="405" xlink:href="#p" />
<use x="297" y="405" xlink:href="#p" />
<use x="432" y="405" xlink:href="#p" />
<use x="513" y="405" xlink:href="#p" />
<use x="540" y="405" xlink:href="#p" />
<use x="621" y="405" xlink:href="#p" />
<use x="702" y="405" xlink:href="#p" />
<use x="756" y="405" xlink:href="#p" />
<use x="891" y="405" xlink:href="#p" />
<use x="918" y="405" xlink:href="#p" />
<use x="81" y="432" xlink:href="#p" />
<use x="108" y="432" xlink:href="#p" />
<use x="135" y="432" xlink:href="#p" />
<use x="162" y="432" xlink:href="#p" />
<use x="189" y="432" xlink:href="#p" />
<use x="216" y="432" xlink:href="#p" />
<use x="243" y="432" xlink:href="#p" />
<use x="270" y="432" xlink:href="#p" />
<use x="297" y="432" xlink:href="#p" />
<use x="351" y="432" xlink:href="#p" />
<use x="378" y="432" xlink:href="#p" />
<use x="405" y="432" xlink:href="#p" />
<use x="432" y="432" xlink:href="#p" />
<use x="513" y="432" xlink:href="#p" />
<use x="540" y="432" xlink:href="#p" />
<use x="594" y="432" xlink:href="#p" />
<use x="621" y="432" xlink:href="#p" />
<use x="648" y="432" xlink:href="#p" />
<use x="729" y="432" xlink:href="#p" />
<use x="837" y="432" xlink:href="#p" />
<use x="864" y="432" xlink:href="#p" />
<use x="891" y="432" xlink:href="#p" />
<use x="54" y="459" xlink:href="#p" />
<use x="108" y="459" xlink:href="#p" />
<use x="135" y="459" xlink:href="#p" />
<use x="162" y="459" xlink:href="#p" />
<use x="243" y="459" xlink:href="#p" />
<use x="297" y="459" xlink:href="#p" />
<use x="378" y="459" xlink:href="#p" />
<use x="405" y="459" xlink:href="#p" />
<use x="459" y="459" xlink:href="#p" />
<use x="486" y="459" xlink:href="#p" />
<use x="513" y="459" xlink:href="#p" />
<use x="621" y="459" xlink:href="#p" />
<use x="675" y="459" xlink:href="#p" />
<use x="729" y="459" xlink:href="#p" />
<use x="756" y="459" xlink:href="#p" />
<use x="783" y="459" xlink:href="#p" />
<use x="837" y="459" xlink:href="#p" />
<use x="864" y="459" xlink:href="#p" />
<use x="54" y="486" xlink:href="#p" />
<use x="81" y="486" xlink:href="#p" />
<use x="108" y="486" xlink:href="#p" />
<use x="162" y="486" xlink:href="#p" />
<use x="216" y="486" xlink:href="#p" />
<use x="243" y="486" xlink:href="#p" />
<use x="324" y="486" xlink:href="#p" />
<use x="405" y="486" xlink:href="#p" />
<use x="486" y="486" xlink:href="#p" />
<use x="513" y="486" xlink:href="#p" />
<use x="540" y="486" xlink:href="#p" />
<use x="648" y="486" xlink:href="#p" />
<use x="702" y="486" xlink:href="#p" />
<use x="729" y="486" xlink:href="#p" />
<use x="783" y="486" xlink:href="#p" />
<use x="810" y="486" xlink:href="#p" />
<use x="918" y="486" xlink:href="#p" />
<use x="54" y="513" xlink:href="#p" />
<use x="243" y="513" xlink:href="#p" />
<use x="270" y="513" xlink:href="#p" />
<use x="324" y="513" xlink:href="#p" />
<use x="351" y="513" xlink:href="#p" />
<use x="378" y="513" xlink:href="#p" />
<use x="405" y="513" xlink:href="#p" />
<use x="459" y="513" xlink:href="#p" />
<use x="486" y="513" xlink:href="#p" />
<use x="567" y="513" xlink:href="#p" />
<use x="594" y="513" xlink:href="#p" />
<use x="621" y="513" xlink:href="#p" />
<use x="675" y="513" xlink:href="#p" />
<use x="729" y="513" xlink:href="#p" />
<use x="756" y="513" xlink:href="#p" />
<use x="783" y="513" xlink:href="#p" />
<use x="837" y="513" xlink:href="#p" />
<use x="864" y="513" xlink:href="#p" />
<use x="918" y="513" xlink:href="#p" />
<use x="54" y="540" xlink:href="#p" />
<use x="81" y="540" xlink:href="#p" />
<use x="108" y="540" xlink:href="#p" />
<use x="135" y="540" xlink:href="#p" />
<use x="162" y="540" xlink:href="#p" />
<use x="189" y="540" xlink:href="#p" />
<use x="216" y="540" xlink:href="#p" />
<use x="324" y="540" xlink:href="#p" />
<use x="405" y="540" xlink:href="#p" />
<use x="594" y="540" xlink:href="#p" />
<use x="621" y="540" xlink:href="#p" />
<use x="702" y="540" xlink:href="#p" />
<use x="729" y="540" xlink:href="#p" />
<use x="756" y="540" xlink:href="#p" />
<use x="810" y="540" xlink:href="#p" />
<use x="864" y="540" xlink:href="#p" />
<use x="54" y="567" xlink:href="#p" />
<use x="135" y="567" xlink:href="#p" />
<use x="297" y="567" xlink:href="#p" />
<use x="324" y="567" xlink:href="#p" />
<use x="378" y="567" xlink:href="#p" />
<use x="432" y="567" xlink:href="#p" />
<use x="459" y="567" xlink:href="#p" />
<use x="486" y="567" xlink:href="#p" />
<use x="621" y="567" xlink:href="#p" />
<use x="648" y="567" xlink:href="#p" />
<use x="675" y="567" xlink:href="#p" />
<use x="756" y="567" xlink:href="#p" />
<use x="810" y="567" xlink:href="#p" />
<use x="837" y="567" xlink:href="#p" />
<use x="864" y="567" xlink:href="#p" />
<use x="891" y="567" xlink:href="#p" />
<use x="135" y="594" xlink:href="#p" />
<use x="162" y="594" xlink:href="#p" />
<use x="216" y="594" xlink:href="#p" />
<use x="243" y="594" xlink:href="#p" />
<use x="270" y="594" xlink:href="#p" />
<use x="297" y="594" xlink:href="#p" />
<use x="324" y="594" xlink:href="#p" />
<use x="351" y="594" xlink:href="#p" />
<use x="378" y="594" xlink:href="#p" />
<use x="459" y="594" xlink:href="#p" />
<use x="486" y="594" xlink:href="#p" />
<use x="621" y="594" xlink:href="#p" />
<use x="675" y="594" xlink:href="#p" />
<use x="702" y="594" xlink:href="#p" />
<use x="729" y="594" xlink:href="#p" />
<use x="783" y="594" xlink:href="#p" />
<use x="810" y="594" xlink:href="#p" />
<use x="837" y="594" xlink:href="#p" />
<use x="891" y="594" xlink:href="#p" />
<use x="918" y="594" xlink:href="#p" />
<use x="54" y="621" xlink:href="#p" />
<use x="81" y="621" xlink:href="#p" />
<use x="108" y="621" xlink:href="#p" />
<use x="135" y="621" xlink:href="#p" />
<use x="162" y="621" xlink:href="#p" />
<use x="243" y="621" xlink:href="#p" />
<use x="270" y="621" xlink:href="#p" />
<use x="324" y="621" xlink:href="#p" />
<use x="351" y="621" xlink:href="#p" />
<use x="432" y="621" xlink:href="#p" />
<use x="459" y="621" xlink:href="#p" />
<use x="486" y="621" xlink:href="#p" />
<use x="540" y="621" xlink:href="#p" />
<use x="594" y="621" xlink:href="#p" />
<use x="621" y="621" xlink:href="#p" />
<use x="648" y="621" xlink:href="#p" />
<use x="675" y="621" xlink:href="#p" />
<use x="756" y="621" xlink:href="#p" />
<use x="864" y="621" xlink:href="#p" />
<use x="918" y="621" xlink:href="#p" />
<use x="54" y="648" xlink:href="#p" />
<use x="162" y="648" xlink:href="#p" />
<use x="216" y="648" xlink:href="#p" />
<use x="432" y="648" xlink:href="#p" />
<use x="486" y="648" xlink:href="#p" />
<use x="513" y="648" xlink:href="#p" />
<use x="567" y="648" xlink:href="#p" />
<use x="621" y="648" xlink:href="#p" />
<use x="702" y="648" xlink:href="#p" />
<use x="729" y="648" xlink:href="#p" />
<use x="783" y="648" xlink:href="#p" />
<use x="837" y="648" xlink:href="#p" />
<use x="864" y="648" xlink:href="#p" />
<use x="891" y="648" xlink:href="#p" />
<use x="54" y="675" xlink:href="#p" />
<use x="270" y="675" xlink:href="#p" />
<use x="297" y="675" xlink:href="#p" />
<use x="324" y="675" xlink:href="#p" />
<use x="486" y="675" xlink:href="#p" />
<use x="513" y="675" xlink:href="#p" />
<use x="567" y="675" xlink:href="#p" />
<use x="594" y="675" xlink:href="#p" />
<use x="621" y="675" xlink:href="#p" />
<use x="648" y="675" xlink:href="#p" />
<use x="675" y="675" xlink:href="#p" />
<use x="729" y="675" xlink:href="#p" />
<use x="756" y="675" xlink:href="#p" />
<use x="810" y="675" xlink:href="#p" />
<use x="837" y="675" xlink:href="#p" />
<use x="864" y="675" xlink:href="#p" />
<use x="891" y="675" xlink:href="#p" />
<use x="918" y="675" xlink:href="#p" />
<use x="54" y="702" xlink:href="#p" />
<use x="108" y="702" xlink:href="#p" />
<use x="162" y="702" xlink:href="#p" />
<use x="189" y="702" xlink:href="#p" />
<use x="216" y="702" xlink:href="#p" />
<use x="243" y="702" xlink:href="#p" />
<use x="270" y="702" xlink:href="#p" />
<use x="297" y="702" xlink:href="#p" />
<use x="324" y="702" xlink:href="#p" />
<use x="378" y="702" xlink:href="#p" />
<use x="432" y="702" xlink:href="#p" />
<use x="486" y="702" xlink:href="#p" />
<use x="540" y="702" xlink:href="#p" />
<use x="567" y="702" xlink:href="#p" />
<use x="648" y="702" xlink:href="#p" />
<use x="675" y="702" xlink:href="#p" />
<use x="702" y="702" xlink:href="#p" />
<use x="729" y="702" xlink:href="#p" />
<use x="756" y="702" xlink:href="#p" />
<use x="783" y="702" xlink:href="#p" />
<use x="810" y="702" xlink:href="#p" />
<use x="270" y="729" xlink:href="#p" />
<use x="297" y="729" xlink:href="#p" />
<use x="324" y="729" xlink:href="#p" />
<use x="351" y="729" xlink:href="#p" />
<use x="459" y="729" xlink:href="#p" />
<use x="540" y="729" xlink:href="#p" />
<use x="567" y="729" xlink:href="#p" />
<use x="594" y="729" xlink:href="#p" />
<use x="702" y="729" xlink:href="#p" />
<use x="810" y="729" xlink:href="#p" />
<use x="864" y="729" xlink:href="#p" />
<use x="918" y="729" xlink:href="#p" />
<use x="54" y="756" xlink:href="#p" />
<use x="81" y="756" xlink:href="#p" />
<use x="108" y="756" xlink:href="#p" />
<use x="135" y="756" xlink:href="#p" />
<use x="162" y="756" xlink:href="#p" />
<use x="189" y="756" xlink:href="#p" />
<use x="216" y="756" xlink:href="#p" />
<use x="270" y="756" xlink:href="#p" />
<use x="324" y="756" xlink:href="#p" />
<use x="351" y="756" xlink:href="#p" />
<use x="378" y="756" xlink:href="#p" />
<use x="459" y="756" xlink:href="#p" />
<use x="486" y="756" xlink:href="#p" />
<use x="513" y="756" xlink:href="#p" />
<use x="540" y="756" xlink:href="#p" />
<use x="648" y="756" xlink:href="#p" />
<use x="675" y="756" xlink:href="#p" />
<use x="702" y="756" xlink:href="#p" />
<use x="756" y="756" xlink:href="#p" />
<use x="810" y="756" xlink:href="#p" />
<use x="864" y="756" xlink:href="#p" />
<use x="891" y="756" xlink:href="#p" />
<use x="54" y="783" xlink:href="#p" />
<use x="216" y="783" xlink:href="#p" />
<use x="270" y="783" xlink:href="#p" />
<use x="297" y="783" xlink:href="#p" />
<use x="351" y="783" xlink:href="#p" />
<use x="459" y="783" xlink:href="#p" />
<use x="540" y="783" xlink:href="#p" />
<use x="567" y="783" xlink:href="#p" />
<use x="702" y="783" xlink:href="#p" />
<use x="810" y="783" xlink:href="#p" />
<use x="864" y="783" xlink:href="#p" />
<use x="891" y="783" xlink:href="#p" />
<use x="918" y="783" xlink:href="#p" />
<use x="54" y="810" xlink:href="#p" />
<use x="108" y="810" xlink:href="#p" />
<use x="135" y="810" xlink:href="#p" />
<use x="162" y="810" xlink:href="#p" />
<use x="216" y="810" xlink:href="#p" />
<use x="270" y="810" xlink:href="#p" />
<use x="297" y="810" xlink:href="#p" />
<use x="351" y="810" xlink:href="#p" />
<use x="378" y="810" xlink:href="#p" />
<use x="405" y="810" xlink:href="#p" />
<use x="432" y="810" xlink:href="#p" />
<use x="459" y="810" xlink:href="#p" />
<use x="513" y="810" xlink:href="#p" />
<use x="594" y="810" xlink:href="#p" />
<use x="621" y="810" xlink:href="#p" />
<use x="648" y="810" xlink:href="#p" />
<use x="702" y="810" xlink:href="#p" />
<use x="729" y="810" xlink:href="#p" />
<use x="756" y="810" xlink:href="#p" />
<use x="783" y="810" xlink:href="#p" />
<use x="810" y="810" xlink:href="#p" />
<use x="837" y="810" xlink:href="#p" />
<use x="891" y="810" xlink:href="#p" />
<use x="918" y="810" xlink:href="#p" />
<use x="54" y="837" xlink:href="#p" />
<use x="108" y="837" xlink:href="#p" />
<use x="135" y="837" xlink:href="#p" />
<use x="162" y="837" xlink:href="#p" />
<use x="216" y="837" xlink:href="#p" />
<use x="270" y="837" xlink:href="#p" />
<use x="324" y="837" xlink:href="#p" />
<use x="351" y="837" xlink:href="#p" />
<use x="378" y="837" xlink:href="#p" />
<use x="405" y="837" xlink:href="#p" />
<use x="513" y="837" xlink:href="#p" />
<use x="540" y="837" xlink:href="#p" />
<use x="621" y="837" xlink:href="#p" />
<use x="675" y="837" xlink:href="#p" />
<use x="729" y="837" xlink:href="#p" />
<use x="783" y="837" xlink:href="#p" />
<use x="810" y="837" xlink:href="#p" />
<use x="837" y="837" xlink:href="#p" />
<use x="864" y="837" xlink:href="#p" />
<use x="918" y="837" xlink:href="#p" />
<use x="54" y="864" xlink:href="#p" />
<use x="108" y="864" xlink:href="#p" />
<use x="135" y="864" xlink:href="#p" />
<use x="162" y="864" xlink:href="#p" />
<use x="216" y="864" xlink:href="#p" />
<use x="270" y="864" xlink:href="#p" />
<use x="297" y="864" xlink:href="#p" />
<use x="351" y="864" xlink:href="#p" />
<use x="378" y="864" xlink:href="#p" />
<use x="405" y="864" xlink:href="#p" />
<use x="486" y="864" xlink:href="#p" />
<use x="513" y="864" xlink:href="#p" />
<use x="594" y="864" xlink:href="#p" />
<use x="648" y="864" xlink:href="#p" />
<use x="675" y="864" xlink:href="#p" />
<use x="702" y="864" xlink:href="#p" />
<use x="729" y="864" xlink:href="#p" />
<use x="756" y="864" xlink:href="#p" />
<use x="783" y="864" xlink:href="#p" />
<use x="837" y="864" xlink:href="#p" />
<use x="864" y="864" xlink:href="#p" />
<use x="54" y="891" xlink:href="#p" />
<use x="216" y="891" xlink:href="#p" />
<use x="270" y="891" xlink:href="#p" />
<use x="324" y="891" xlink:href="#p" />
<use x="405" y="891" xlink:href="#p" />
<use x="486" y="891" xlink:href="#p" />
<use x="540" y="891" xlink:href="#p" />
<use x="621" y="891" xlink:href="#p" />
<use x="648" y="891" xlink:href="#p" />
<use x="729" y="891" xlink:href="#p" />
<use x="756" y="891" xlink:href="#p" />
<use x="783" y="891" xlink:href="#p" />
<use x="810" y="891" xlink:href="#p" />
<use x="837" y="891" xlink:href="#p" />
<use x="864" y="891" xlink:href="#p" />
<use x="54" y="918" xlink:href="#p" />
<use x="81" y="918" xlink:href="#p" />
<use x="108" y="918" xlink:href="#p" />
<use x="135" y="918" xlink:href="#p" />
<use x="162" y="918" xlink:href="#p" />
<use x="189" y="918" xlink:href="#p" />
<use x="216" y="918" xlink:href="#p" />
<use x="324" y="918" xlink:href="#p" />
<use x="351" y="918" xlink:href="#p" />
<use x="378" y="918" xlink:href="#p" />
<use x="405" y="918" xlink:href="#p" />
<use x="432" y="918" xlink:href="#p" />
<use x="459" y="918" xlink:href="#p" />
<use x="513" y="918" xlink:href="#p" />
<use x="594" y="918" xlink:href="#p" />
<use x="648" y="918" xlink:href="#p" />
<use x="675" y="918" xlink:href="#p" />
<use x="702" y="918" xlink:href="#p" />
<use x="729" y="918" xlink:href="#p" />
<use x="756" y="918" xlink:href="#p" />
<use x="783" y="918" xlink:href="#p" />
<use x="810" y="918" xlink:href="#p" />
<use x="891" y="918" xlink:href="#p" />
</g>
</svg>