<?xml version="1.0" encoding="utf-8"?>
<!DOCTYPE svg PUBLIC "-//W3C//DTD SVG 20010904//EN" "http://www.w3.org/TR/2001/REC-SVG-20010904/DTD/svg10.dtd">
<svg xmlns="http://www.w3.org/2000/svg" xml:space="preserve" xmlns:xlink="http://www.w3.org/1999/xlink" width="848" height="848" viewBox="0 0 848 848">
<desc></desc>
<rect width="848" height="848" fill="#ffffff" cx="0" cy="0" />
<defs>
<rect id="p" width="16" height="16" />
<circle id="circle" r="8" stroke-width="0" fill="000000" />
<rect id="hor" width="16" height="4" />
<rect id="ver" width="4" height="16" />
<polygon id="3d1" points="0,0 16,0 0,16" stroke-width="0" fill="000000" />
<polygon id="3d2" points="0,16 16,0 16,16" stroke-width="0" fill="#808080" />
</defs>
<g fill="#000000">
<use x="32" y="32" xlink:href="#p" />
<use x="48" y="32" xlink:href="#p" />
<use x="64" y="32" xlink:href="#p" />
<use x="80" y="32" xlink:href="#p" />
<use x="96" y="32" xlink:href="#p" />
<use x="112" y="32" xlink:href="#p" />
<use x="128" y="32" xlink:href="#p" />
<use x="176" y="32" xlink:href="#p" />
<use x="224" y="32" xlink:href="#p" />
<use x="256" y="32" xlink:href="#p" />
<use x="272" y="32" xlink:href="#p" />
<use x="288" y="32" xlink:href="#p" />
<use x="400" y="32" xlink:href="#p" />
<use x="448" y="32" xlink:href="#p" />
<use x="464" y="32" xlink:href="#p" />
<use x="480" y="32" xlink:href="#p" />
<use x="544" y="32" xlink:href="#p" />
<use x="560" y="32" xlink:href="#p" />
<use x="576" y="32" xlink:href="#p" />
<use x="608" y="32" xlink:href="#p" />
<use x="624" y="32" xlink:href="#p" />
<use x="672" y="32" xlink:href="#p" />
<use x="704" y="32" xlink:href="#p" />
<use x="720" y="32" xlink:href="#p" />
<use x="736" y="32" xlink:href="#p" />
<use x="752" y="32" xlink:href="#p" />
<use x="768" y="32" xlink:href="#p" />
<use x="784" y="32" xlink:href="#p" />
<use x="800" y="32" xlink:href="#p" />
<use x="32" y="48" xlink:href="#p" />
<use x="128" y="48" xlink:href="#p" />
<use x="160" y="48" xlink:href="#p" />
<use x="320" y="48" xlink:href="#p" />
<use x="336" y="48" xlink:href="#p" />
<use x="352" y="48" xlink:href="#p" />
<use x="368" y="48" xlink:href="#p" />
<use x="384" y="48" xlink:href="#p" />
<use x="400" y="48" xlink:href="#p" />
<use x="416" y="48" xlink:href="#p" />
<use x="448" y="48" xlink:href="#p" />
<use x="544" y="48" xlink:href="#p" />
<use x="608" y="48" xlink:href="#p" />
<use x="624" y="48" xlink:href="#p" />
<use x="640" y="48" xlink:href="#p" />
<use x="656" y="48" xlink:href="#p" />
<use x="672" y="48" xlink:href="#p" />
<use x="704" y="48" xlink:href="#p" />
<use x="800" y="48" xlink:href="#p" />
<use x="32" y="64" xlink:href="#p" />
<use x="64" y="64" xlink:href="#p" />
<use x="80" y="64" xlink:href="#p" />
<use x="96" y="64" xlink:href="#p" />
<use x="128" y="64" xlink:href="#p" />
<use x="176" y="64" xlink:href="#p" />
<use x="192" y="64" xlink:href="#p" />
<use x="208" y="64" xlink:href="#p" />
<use x="224" y="64" xlink:href="#p" />
<use x="240" y="64" xlink:href="#p" />
<use x="272" y="64" xlink:href="#p" />
<use x="288" y="64" xlink:href="#p" />
<use x="304" y="64" xlink:href="#p" />
<use x="320" y="64" xlink:href="#p" />
<use x="352" y="64" xlink:href="#p" />
<use x="384" y="64" xlink:href="#p" />
<use x="400" y="64" xlink:href="#p" />
<use x="416" y="64" xlink:href="#p" />
<use x="480" y="64" xlink:href="#p" />
<use x="512" y="64" xlink:href="#p" />
<use x="656" y="64" xlink:href="#p" />
<use x="672" y="64" xlink:href="#p" />
<use x="704" y="64" xlink:href="#p" />
<use x="736" y="64" xlink:href="#p" />
<use x="752" y="64" xlink:href="#p" />
<use x="768" y="64" xlink:href="#p" />
<use x="800" y="64" xlink:href="#p" />
<use x="32" y="80" xlink:href="#p" />
<use x="64" y="80" xlink:href="#p" />
<use x="80" y="80" xlink:href="#p" />
<use x="96" y="80" xlink:href="#p" />
<use x="128" y="80" xlink:href="#p" />
<use x="160" y="80" xlink:href="#p" />
<use x="272" y="80" xlink:href="#p" />
<use x="320" y="80" xlink:href="#p" />
<use x="368" y="80" xlink:href="#p" />
<use x="384" y="80" xlink:href="#p" />
<use x="416" y="80" xlink:href="#p" />
<use x="432" y="80" xlink:href="#p" />
<use x="464" y="80" xlink:href="#p" />
<use x="512" y="80" xlink:href="#p" />
<use x="528" y="80" xlink:href="#p" />
<use x="592" y="80" xlink:href="#p" />
<use x="608" y="80" xlink:href="#p" />
<use x="624" y="80" xlink:href="#p" />
<use x="656" y="80" xlink:href="#p" />
<use x="704" y="80" xlink:href="#p" />
<use x="736" y="80" xlink:href="#p" />
<use x="752" y="80" xlink:href="#p" />
<use x="768" y="80" xlink:href="#p" />
<use x="800" y="80" xlink:href="#p" />
<use x="32" y="96" xlink:href="#p" />
<use x="64" y="96" xlink:href="#p" />
<use x="80" y="96" xlink:href="#p" />
<use x="96" y="96" xlink:href="#p" />
<use x="128" y="96" xlink:href="#p" />
<use x="176" y="96" xlink:href="#p" />
<use x="192" y="96" xlink:href="#p" />
<use x="208" y="96" xlink:href="#p" />
<use x="240" y="96" xlink:href="#p" />
<use x="288" y="96" xlink:href="#p" />
<use x="304" y="96" xlink:href="#p" />
<use x="320" y="96" xlink:href="#p" />
<use x="336" y="96" xlink:href="#p" />
<use x="352" y="96" xlink:href="#p" />
<use x="384" y="96" xlink:href="#p" />
<use x="400" y="96" xlink:href="#p" />
<use x="416" y="96" xlink:href="#p" />
<use x="432" y="96" xlink:href="#p" />
<use x="448" y="96" xlink:href="#p" />
<use x="464" y="96" xlink:href="#p" />
<use x="512" y="96" xlink:href="#p" />
<use x="528" y="96" xlink:href="#p" />
<use x="544" y="96" xlink:href="#p" />
<use x="560" y="96" xlink:href="#p" />
<use x="592" y="96" xlink:href="#p" />
<use x="624" y="96" xlink:href="#p" />
<use x="704" y="96" xlink:href="#p" />
<use x="736" y="96" xlink:href="#p" />
<use x="752" y="96" xlink:href="#p" />
<use x="768" y="96" xlink:href="#p" />
<use x="800" y="96" xlink:href="#p" />
<use x="32" y="112" xlink:href="#p" />
<use x="128" y="112" xlink:href="#p" />
<use x="160" y="112" xlink:href="#p" />
<use x="176" y="112" xlink:href="#p" />
<use x="208" y="112" xlink:href="#p" />
<use x="272" y="112" xlink:href="#p" />
<use x="288" y="112" xlink:href="#p" />
<use x="320" y="112" xlink:href="#p" />
<use x="352" y="112" xlink:href="#p" />
<use x="384" y="112" xlink:href="#p" />
<use x="448" y="112" xlink:href="#p" />
<use x="480" y="112" xlink:href="#p" />
<use x="528" y="112" xlink:href="#p" />
<use x="544" y="112" xlink:href="#p" />
<use x="560" y="112" xlink:href="#p" />
<use x="576" y="112" xlink:href="#p" />
<use x="608" y="112" xlink:href="#p" />
<use x="640" y="112" xlink:href="#p" />
<use x="704" y="112" xlink:href="#p" />
<use x="800" y="112" xlink:href="#p" />
<use x="32" y="128" xlink:href="#p" />
<use x="48" y="128" xlink:href="#p" />
<use x="64" y="128" xlink:href="#p" />
<use x="80" y="128" xlink:href="#p" />
<use x="96" y="128" xlink:href="#p" />
<use x="112" y="128" xlink:href="#p" />
<use x="128" y="128" xlink:href="#p" />
<use x="160" y="128" xlink:href="#p" />
<use x="192" y="128" xlink:href="#p" />
<use x="224" y="128" xlink:href="#p" />
<use x="256" y="128" xlink:href="#p" />
<use x="288" y="128" xlink:href="#p" />
<use x="320" y="128" xlink:href="#p" />
<use x="352" y="128" xlink:href="#p" />
<use x="384" y="128" xlink:href="#p" />
<use x="416" y="128" xlink:href="#p" />
<use x="448" y="128" xlink:href="#p" />
<use x="480" y="128" xlink:href="#p" />
<use x="512" y="128" xlink:href="#p" />
<use x="544" y="128" xlink:href="#p" />
<use x="576" y="128" xlink:href="#p" />
<use x="608" y="128" xlink:href="#p" />
<use x="640" y="128" xlink:href="#p" />
<use x="672" y="128" xlink:href="#p" />
<use x="704" y="128" xlink:href="#p" />
<use x="720" y="128" xlink:href="#p" />
<use x="736" y="128" xlink:href="#p" />
<use x="752" y="128" xlink:href="#p" />
<use x="768" y="128" xlink:href="#p" />
<use x="784" y="128" xlink:href="#p" />
<use x="800" y="128" xlink:href="#p" />
<use x="176" y="144" xlink:href="#p" />
<use x="224" y="144" xlink:href="#p" />
<use x="240" y="144" xlink:href="#p" />
<use x="288" y="144" xlink:href="#p" />
<use x="304" y="144" xlink:href="#p" />
<use x="336" y="144" xlink:href="#p" />
<use x="352" y="144" xlink:href="#p" />
<use x="368" y="144" xlink:href="#p" />
<use x="384" y="144" xlink:href="#p" />
<use x="448" y="144" xlink:href="#p" />
<use x="464" y="144" xlink:href="#p" />
<use x="496" y="144" xlink:href="#p" />
<use x="512" y="144" xlink:href="#p" />
<use x="528" y="144" xlink:href="#p" />
<use x="544" y="144" xlink:href="#p" />
<use x="576" y="144" xlink:href="#p" />
<use x="592" y="144" xlink:href="#p" />
<use x="608" y="144" xlink:href="#p" />
<use x="640" y="144" xlink:href="#p" />
<use x="672" y="144" xlink:href="#p" />
<use x="32" y="160" xlink:href="#p" />
<use x="48" y="160" xlink:href="#p" />
<use x="64" y="160" xlink:href="#p" />
<use x="80" y="160" xlink:href="#p" />
<use x="96" y="160" xlink:href="#p" />
<use x="128" y="160" xlink:href="#p" />
<use x="144" y="160" xlink:href="#p" />
<use x="160" y="160" xlink:href="#p" />
<use x="176" y="160" xlink:href="#p" />
<use x="192" y="160" xlink:href="#p" />
<use x="224" y="160" xlink:href="#p" />
<use x="272" y="160" xlink:href="#p" />
<use x="288" y="160" xlink:href="#p" />
<use x="320" y="160" xlink:href="#p" />
<use x="336" y="160" xlink:href="#p" />
<use x="352" y="160" xlink:href="#p" />
<use x="368" y="160" xlink:href="#p" />
<use x="384" y="160" xlink:href="#p" />
<use x="400" y="160" xlink:href="#p" />
<use x="416" y="160" xlink:href="#p" />
<use x="432" y="160" xlink:href="#p" />
<use x="448" y="160" xlink:href="#p" />
<use x="464" y="160" xlink:href="#p" />
<use x="512" y="160" xlink:href="#p" />
<use x="560" y="160" xlink:href="#p" />
<use x="656" y="160" xlink:href="#p" />
<use x="688" y="160" xlink:href="#p" />
<use x="720" y="160" xlink:href="#p" />
<use x="752" y="160" xlink:href="#p" />
<use x="784" y="160" xlink:href="#p" />
<use x="32" y="176" xlink:href="#p" />
<use x="64" y="176" xlink:href="#p" />
<use x="80" y="176" xlink:href="#p" />
<use x="112" y="176" xlink:href="#p" />
<use x="176" y="176" xlink:href="#p" />
<use x="192" y="176" xlink:href="#p" />
<use x="224" y="176" xlink:href="#p" />
<use x="320" y="176" xlink:href="#p" />
<use x="336" y="176" xlink:href="#p" />
<use x="384" y="176" xlink:href="#p" />
<use x="400" y="176" xlink:href="#p" />
<use x="416" y="176" xlink:href="#p" />
<use x="464" y="176" xlink:href="#p" />
<use x="512" y="176" xlink:href="#p" />
<use x="560" y="176" xlink:href="#p" />
<use x="592" y="176" xlink:href="#p" />
<use x="608" y="176" xlink:href="#p" />
<use x="640" y="176" xlink:href="#p" />
<use x="656" y="176" xlink:href="#p" />
<use x="736" y="176" xlink:href="#p" />
<use x="752" y="176" xlink:href="#p" />
<use x="784" y="176" xlink:href="#p" />
<use x="800" y="176" xlink:href="#p" />
<use x="32" y="192" xlink:href="#p" />
<use x="64" y="192" xlink:href="#p" />
<use x="112" y="192" xlink:href="#p" />
<use x="128" y="192" xlink:href="#p" />
<use x="160" y="192" xlink:href="#p" />
<use x="176" y="192" xlink:href="#p" />
<use x="192" y="192" xlink:href="#p" />
<use x="224" y="192" xlink:href="#p" />
<use x="240" y="192" xlink:href="#p" />
<use x="256" y="192" xlink:href="#p" />
<use x="288" y="192" xlink:href="#p" />
<use x="304" y="192" xlink:href="#p" />
<use x="336" y="192" xlink:href="#p" />
<use x="368" y="192" xlink:href="#p" />
<use x="416" y="192" xlink:href="#p" />
<use x="432" y="192" xlink:href="#p" />
<use x="448" y="192" xlink:href="#p" />
<use x="464" y="192" xlink:href="#p" />
<use x="496" y="192" xlink:href="#p" />
<use x="576" y="192" xlink:href="#p" />
<use x="624" y="192" xlink:href="#p" />
<use x="640" y="192" xlink:href="#p" />
<use x="656" y="192" xlink:href="#p" />
<use x="672" y="192" xlink:href="#p" />
<use x="720" y="192" xlink:href="#p" />
<use x="752" y="192" xlink:href="#p" />
<use x="32" y="208" xlink:href="#p" />
<use x="96" y="208" xlink:href="#p" />
<use x="112" y="208" xlink:href="#p" />
<use x="144" y="208" xlink:href="#p" />
<use x="160" y="208" xlink:href="#p" />
<use x="208" y="208" xlink:href="#p" />
<use x="224" y="208" xlink:href="#p" />
<use x="256" y="208" xlink:href="#p" />
<use x="272" y="208" xlink:href="#p" />
<use x="288" y="208" xlink:href="#p" />
<use x="368" y="208" xlink:href="#p" />
<use x="384" y="208" xlink:href="#p" />
<use x="464" y="208" xlink:href="#p" />
<use x="480" y="208" xlink:href="#p" />
<use x="512" y="208" xlink:href="#p" />
<use x="544" y="208" xlink:href="#p" />
<use x="576" y="208" xlink:href="#p" />
<use x="624" y="208" xlink:href="#p" />
<use x="640" y="208" xlink:href="#p" />
<use x="656" y="208" xlink:href="#p" />
<use x="672" y="208" xlink:href="#p" />
<use x="688" y="208" xlink:href="#p" />
<use x="704" y="208" xlink:href="#p" />
<use x="736" y="208" xlink:href="#p" />
<use x="784" y="208" xlink:href="#p" />
<use x="800" y="208" xlink:href="#p" />
<use x="32" y="224" xlink:href="#p" />
<use x="48" y="224" xlink:href="#p" />
<use x="64" y="224" xlink:href="#p" />
<use x="80" y="224" xlink:href="#p" />
<use x="128" y="224" xlink:href="#p" />
<use x="144" y="224" xlink:href="#p" />
<use x="160" y="224" xlink:href="#p" />
<use x="176" y="224" xlink:href="#p" />
<use x="224" y="224" xlink:href="#p" />
<use x="240" y="224" xlink:href="#p" />
<use x="256" y="224" xlink:href="#p" />
<use x="304" y="224" xlink:href="#p" />
<use x="336" y="224" xlink:href="#p" />
<use x="368" y="224" xlink:href="#p" />
<use x="384" y="224" xlink:href="#p" />
<use x="432" y="224" xlink:href="#p" />
<use x="464" y="224" xlink:href="#p" />
<use x="512" y="224" xlink:href="#p" />
<use x="576" y="224" xlink:href="#p" />
<use x="592" y="224" xlink:href="#p" />
<use x="608" y="224" xlink:href="#p" />
<use x="624" y="224" xlink:href="#p" />
<use x="656" y="224" xlink:href="#p" />
<use x="672" y="224" xlink:href="#p" />
<use x="688" y="224" xlink:href="#p" />
<use x="720" y="224" xlink:href="#p" />
<use x="768" y="224" xlink:href="#p" />
<use x="800" y="224" xlink:href="#p" />
<use x="32" y="240" xlink:href="#p" />
<use x="64" y="240" xlink:href="#p" />
<use x="192" y="240" xlink:href="#p" />
<use x="224" y="240" xlink:href="#p" />
<use x="272" y="240" xlink:href="#p" />
<use x="320" y="240" xlink:href="#p" />
<use x="368" y="240" xlink:href="#p" />
<use x="416" y="240" xlink:href="#p" />
<use x="464" y="240" xlink:href="#p" />
<use x="512" y="240" xlink:href="#p" />
<use x="528" y="240" xlink:href="#p" />
<use x="592" y="240" xlink:href="#p" />
<use x="608" y="240" xlink:href="#p" />
<use x="688" y="240" xlink:href="#p" />
<use x="704" y="240" xlink:href="#p" />
<use x="736" y="240" xlink:href="#p" />
<use x="752" y="240" xlink:href="#p" />
<use x="768" y="240" xlink:href="#p" />
<use x="784" y="240" xlink:href="#p" />
<use x="32" y="256" xlink:href="#p" />
<use x="48" y="256" xlink:href="#p" />
<use x="64" y="256" xlink:href="#p" />
<use x="96" y="256" xlink:href="#p" />
<use x="112" y="256" xlink:href="#p" />
<use x="128" y="256" xlink:href="#p" />
<use x="144" y="256" xlink:href="#p" />
<use x="160" y="256" xlink:href="#p" />
<use x="192" y="256" xlink:href="#p" />
<use x="256" y="256" xlink:href="#p" />
<use x="336" y="256" xlink:href="#p" />
<use x="400" y="256" xlink:href="#p" />
<use x="496" y="256" xlink:href="#p" />
<use x="512" y="256" xlink:href="#p" />
<use x="544" y="256" xlink:href="#p" />
<use x="560" y="256" xlink:href="#p" />
<use x="608" y="256" xlink:href="#p" />
<use x="640" y="256" xlink:href="#p" />
<use x="672" y="256" xlink:href="#p" />
<use x="720" y="256" xlink:href="#p" />
<use x="736" y="256" xlink:href="#p" />
<use x="768" y="256" xlink:href="#p" />
<use x="784" y="256" xlink:href="#p" />
<use x="800" y="256" xlink:href="#p" />
<use x="32" y="272" xlink:href="#p" />
<use x="48" y="272" xlink:href="#p" />
<use x="144" y="272" xlink:href="#p" />
<use x="160" y="272" xlink:href="#p" />
<use x="240" y="272" xlink:href="#p" />
<use x="272" y="272" xlink:href="#p" />
<use x="304" y="272" xlink:href="#p" />
<use x="368" y="272" xlink:href="#p" />
<use x="416" y="272" xlink:href="#p" />
<use x="496" y="272" xlink:href="#p" />
<use x="544" y="272" xlink:href="#p" />
<use x="592" y="272" xlink:href="#p" />
<use x="608" y="272" xlink:href="#p" />
<use x="656" y="272" xlink:href="#p" />
<use x="688" y="272" xlink:href="#p" />
<use x="704" y="272" xlink:href="#p" />
<use x="736" y="272" xlink:href="#p" />
<use x="752" y="272" xlink:href="#p" />
<use x="800" y="272" xlink:href="#p" />
<use x="48" y="288" xlink:href="#p" />
<use x="96" y="288" xlink:href="#p" />
<use x="112" y="288" xlink:href="#p" />
<use x="128" y="288" xlink:href="#p" />
<use x="160" y="288" xlink:href="#p" />
<use x="176" y="288" xlink:href="#p" />
<use x="192" y="288" xlink:href="#p" />
<use x="224" y="288" xlink:href="#p" />
<use x="256" y="288" xlink:href="#p" />
<use x="336" y="288" xlink:href="#p" />
<use x="400" y="288" xlink:href="#p" />
<use x="464" y="288" xlink:href="#p" />
<use x="512" y="288" xlink:href="#p" />
<use x="560" y="288" xlink:href="#p" />
<use x="576" y="288" xlink:href="#p" />
<use x="608" y="288" xlink:href="#p" />
<use x="640" y="288" xlink:href="#p" />
<use x="656" y="288" xlink:href="#p" />
<use x="688" y="288" xlink:href="#p" />
<use x="736" y="288" xlink:href="#p" />
<use x="752" y="288" xlink:href="#p" />
<use x="768" y="288" xlink:href="#p" />
<use x="784" y="288" xlink:href="#p" />
<use x="800" y="288" xlink:href="#p" />
<use x="32" y="304" xlink:href="#p" />
<use x="48" y="304" xlink:href="#p" />
<use x="64" y="304" xlink:href="#p" />
<use x="80" y="304" xlink:href="#p" />
<use x="112" y="304" xlink:href="#p" />
<use x="160" y="304" xlink:href="#p" />
<use x="208" y="304" xlink:href="#p" />
<use x="224" y="304" xlink:href="#p" />
<use x="272" y="304" xlink:href="#p" />
<use x="288" y="304" xlink:href="#p" />
<use x="336" y="304" xlink:href="#p" />
<use x="352" y="304" xlink:href="#p" />
<use x="368" y="304" xlink:href="#p" />
<use x="480" y="304" xlink:href="#p" />
<use x="496" y="304" xlink:href="#p" />
<use x="560" y="304" xlink:href="#p" />
<use x="576" y="304" xlink:href="#p" />
<use x="592" y="304" xlink:href="#p" />
<use x="608" y="304" xlink:href="#p" />
<use x="656" y="304" xlink:href="#p" />
<use x="688" y="304" xlink:href="#p" />
<use x="704" y="304" xlink:href="#p" />
<use x="752" y="304" xlink:href="#p" />
<use x="800" y="304" xlink:href="#p" />
<use x="80" y="320" xlink:href="#p" />
<use x="96" y="320" xlink:href="#p" />
<use x="112" y="320" xlink:href="#p" />
<use x="128" y="320" xlink:href="#p" />
<use x="208" y="320" xlink:href="#p" />
<use x="320" y="320" xlink:href="#p" />
<use x="336" y="320" xlink:href="#p" />
<use x="352" y="320" xlink:href="#p" />
<use x="400" y="320" xlink:href="#p" />
<use x="432" y="320" xlink:href="#p" />
<use x="448" y="320" xlink:href="#p" />
<use x="464" y="320" xlink:href="#p" />
<use x="480" y="320" xlink:href="#p" />
<use x="512" y="320" xlink:href="#p" />
<use x="528" y="320" xlink:href="#p" />
<use x="608" y="320" xlink:href="#p" />
<use x="624" y="320" xlink:href="#p" />
<use x="640" y="320" xlink:href="#p" />
<use x="672" y="320" xlink:href="#p" />
<use x="704" y="320" xlink:href="#p" />
<use x="720" y="320" xlink:href="#p" />
<use x="736" y="320" xlink:href="#p" />
<use x="768" y="320" xlink:href="#p" />
<use x="32" y="336" xlink:href="#p" />
<use x="80" y="336" xlink:href="#p" />
<use x="112" y="336" xlink:href="#p" />
<use x="224" y="336" xlink:href="#p" />
<use x="240" y="336" xlink:href="#p" />
<use x="272" y="336" xlink:href="#p" />
<use x="288" y="336" xlink:href="#p" />
<use x="304" y="336" xlink:href="#p" />
<use x="320" y="336" xlink:href="#p" />
<use x="368" y="336" xlink:href="#p" />
<use x="400" y="336" xlink:href="#p" />
<use x="416" y="336" xlink:href="#p" />
<use x="464" y="336" xlink:href="#p" />
<use x="496" y="336" xlink:href="#p" />
<use x="528" y="336" xlink:href="#p" />
<use x="544" y="336" xlink:href="#p" />
<use x="576" y="336" xlink:href="#p" />
<use x="624" y="336" xlink:href="#p" />
<use x="640" y="336" xlink:href="#p" />
<use x="656" y="336" xlink:href="#p" />
<use x="688" y="336" xlink:href="#p" />
<use x="736" y="336" xlink:href="#p" />
<use x="752" y="336" xlink:href="#p" />
<use x="784" y="336" xlink:href="#p" />
<use x="800" y="336" xlink:href="#p" />
<use x="32" y="352" xlink:href="#p" />
<use x="64" y="352" xlink:href="#p" />
<use x="112" y="352" xlink:href="#p" />
<use x="128" y="352" xlink:href="#p" />
<use x="144" y="352" xlink:href="#p" />
<use x="160" y="352" xlink:href="#p" />
<use x="176" y="352" xlink:href="#p" />
<use x="192" y="352" xlink:href="#p" />
<use x="272" y="352" xlink:href="#p" />
<use x="320" y="352" xlink:href="#p" />
<use x="400" y="352" xlink:href="#p" />
<use x="432" y="352" xlink:href="#p" />
<use x="464" y="352" xlink:href="#p" />
<use x="496" y="352" xlink:href="#p" />
<use x="560" y="352" xlink:href="#p" />
<use x="592" y="352" xlink:href="#p" />
<use x="608" y="352" xlink:href="#p" />
<use x="624" y="352" xlink:href="#p" />
<use x="640" y="352" xlink:href="#p" />
<use x="656" y="352" xlink:href="#p" />
<use x="672" y="352" xlink:href="#p" />
<use x="688" y="352" xlink:href="#p" />
<use x="768" y="352" xlink:href="#p" />
<use x="800" y="352" xlink:href="#p" />
<use x="48" y="368" xlink:href="#p" />
<use x="64" y="368" xlink:href="#p" />
<use x="144" y="368" xlink:href="#p" />
<use x="192" y="368" xlink:href="#p" />
<use x="224" y="368" xlink:href="#p" />
<use x="240" y="368" xlink:href="#p" />
<use x="288" y="368" xlink:href="#p" />
<use x="304" y="368" xlink:href="#p" />
<use x="320" y="368" xlink:href="#p" />
<use x="336" y="368" xlink:href="#p" />
<use x="352" y="368" xlink:href="#p" />
<use x="384" y="368" xlink:href="#p" />
<use x="400" y="368" xlink:href="#p" />
<use x="432" y="368" xlink:href="#p" />
<use x="448" y="368" xlink:href="#p" />
<use x="464" y="368" xlink:href="#p" />
<use x="512" y="368" xlink:href="#p" />
<use x="528" y="368" xlink:href="#p" />
<use x="544" y="368" xlink:href="#p" />
<use x="608" y="368" xlink:href="#p" />
<use x="624" y="368" xlink:href="#p" />
<use x="688" y="368" xlink:href="#p" />
<use x="704" y="368" xlink:href="#p" />
<use x="720" y="368" xlink:href="#p" />
<use x="736" y="368" xlink:href="#p" />
<use x="752" y="368" xlink:href="#p" />
<use x="784" y="368" xlink:href="#p" />
<use x="32" y="384" xlink:href="#p" />
<use x="48" y="384" xlink:href="#p" />
<use x="64" y="384" xlink:href="#p" />
<use x="80" y="384" xlink:href="#p" />
<use x="96" y="384" xlink:href="#p" />
<use x="112" y="384" xlink:href="#p" />
<use x="128" y="384" xlink:href="#p" />
<use x="144" y="384" xlink:href="#p" />
<use x="160" y="384" xlink:href="#p" />
<use x="192" y="384" xlink:href="#p" />
<use x="208" y="384" xlink:href="#p" />
<use x="256" y="384" xlink:href="#p" />
<use x="272" y="384" xlink:href="#p" />
<use x="288" y="384" xlink:href="#p" />
<use x="320" y="384" xlink:href="#p" />
<use x="352" y="384" xlink:href="#p" />
<use x="384" y="384" xlink:href="#p" />
<use x="400" y="384" xlink:href="#p" />
<use x="416" y="384" xlink:href="#p" />
<use x="432" y="384" xlink:href="#p" />
<use x="448" y="384" xlink:href="#p" />
<use x="496" y="384" xlink:href="#p" />
<use x="544" y="384" xlink:href="#p" />
<use x="560" y="384" xlink:href="#p" />
<use x="576" y="384" xlink:href="#p" />
<use x="592" y="384" xlink:href="#p" />
<use x="640" y="384" xlink:href="#p" />
<use x="656" y="384" xlink:href="#p" />
<use x="672" y="384" xlink:href="#p" />
<use x="688" y="384" xlink:href="#p" />
<use x="704" y="384" xlink:href="#p" />
<use x="720" y="384" xlink:href="#p" />
<use x="736" y="384" xlink:href="#p" />
<use x="752" y="384" xlink:href="#p" />
<use x="784" y="384" xlink:href="#p" />
<use x="800" y="384" xlink:href="#p" />
<use x="32" y="400" xlink:href="#p" />
<use x="80" y="400" xlink:href="#p" />
<use x="96" y="400" xlink:href="#p" />
<use x="160" y="400" xlink:href="#p" />
<use x="176" y="400" xlink:href="#p" />
<use x="208" y="400" xlink:href="#p" />
<use x="240" y="400" xlink:href="#p" />
<use x="256" y="400" xlink:href="#p" />
<use x="288" y="400" xlink:href="#p" />
<use x="304" y="400" xlink:href="#p" />
<use x="336" y="400" xlink:href="#p" />
<use x="352" y="400" xlink:href="#p" />
<use x="368" y="400" xlink:href="#p" />
<use x="384" y="400" xlink:href="#p" />
<use x="448" y="400" xlink:href="#p" />
<use x="512" y="400" xlink:href="#p" />
<use x="528" y="400" xlink:href="#p" />
<use x="560" y="400" xlink:href="#p" />
<use x="576" y="400" xlink:href="#p" />
<use x="592" y="400" xlink:href="#p" />
<use x="672" y="400" xlink:href="#p" />
<use x="736" y="400" xlink:href="#p" />
<use x="752" y="400" xlink:href="#p" />
<use x="768" y="400" xlink:href="#p" />
<use x="800" y="400" xlink:href="#p" />
<use x="96" y="416" xlink:href="#p" />
<use x="128" y="416" xlink:href="#p" />
<use x="160" y="416" xlink:href="#p" />
<use x="208" y="416" xlink:href="#p" />
<use x="224" y="416" xlink:href="#p" />
<use x="256" y="416" xlink:href="#p" />
<use x="272" y="416" xlink:href="#p" />
<use x="320" y="416" xlink:href="#p" />
<use x="352" y="416" xlink:href="#p" />
<use x="384" y="416" xlink:href="#p" />
<use x="416" y="416" xlink:href="#p" />
<use x="448" y="416" xlink:href="#p" />
<use x="464" y="416" xlink:href="#p" />
<use x="528" y="416" xlink:href="#p" />
<use x="544" y="416" xlink:href="#p" />
<use x="608" y="416" xlink:href="#p" />
<use x="672" y="416" xlink:href="#p" />
<use x="704" y="416" xlink:href="#p" />
<use x="736" y="416" xlink:href="#p" />
<use x="752" y="416" xlink:href="#p" />
<use x="784" y="416" xlink:href="#p" />
<use x="800" y="416" xlink:href="#p" />
<use x="32" y="432" xlink:href="#p" />
<use x="48" y="432" xlink:href="#p" />
<use x="80" y="432" xlink:href="#p" />
<use x="96" y="432" xlink:href="#p" />
<use x="160" y="432" xlink:href="#p" />
<use x="176" y="432" xlink:href="#p" />
<use x="208" y="432" xlink:href="#p" />
<use x="224" y="432" xlink:href="#p" />
<use x="240" y="432" xlink:href="#p" />
<use x="272" y="432" xlink:href="#p" />
<use x="320" y="432" xlink:href="#p" />
<use x="352" y="432" xlink:href="#p" />
<use x="384" y="432" xlink:href="#p" />
<use x="448" y="432" xlink:href="#p" />
<use x="464" y="432" xlink:href="#p" />
<use x="512" y="432" xlink:href="#p" />
<use x="528" y="432" xlink:href="#p" />
<use x="560" y="432" xlink:href="#p" />
<use x="592" y="432" xlink:href="#p" />
<use x="640" y="432" xlink:href="#p" />
<use x="672" y="432" xlink:href="#p" />
<use x="736" y="432" xlink:href="#p" />
<use x="752" y="432" xlink:href="#p" />
<use x="768" y="432" xlink:href="#p" />
<use x="784" y="432" xlink:href="#p" />
<use x="48" y="448" xlink:href="#p" />
<use x="64" y="448" xlink:href="#p" />
<use x="80" y="448" xlink:href="#p" />
<use x="96" y="448" xlink:href="#p" />
<use x="112" y="448" xlink:href="#p" />
<use x="128" y="448" xlink:href="#p" />
<use x="144" y="448" xlink:href="#p" />
<use x="160" y="448" xlink:href="#p" />
<use x="208" y="448" xlink:href="#p" />
<use x="224" y="448" xlink:href="#p" />
<use x="240" y="448" xlink:href="#p" />
<use x="256" y="448" xlink:href="#p" />
<use x="304" y="448" xlink:href="#p" />
<use x="336" y="448" xlink:href="#p" />
<use x="368" y="448" xlink:href="#p" />
<use x="384" y="448" xlink:href="#p" />
<use x="400" y="448" xlink:href="#p" />
<use x="416" y="448" xlink:href="#p" />
<use x="432" y="448" xlink:href="#p" />
<use x="448" y="448" xlink:href="#p" />
<use x="464" y="448" xlink:href="#p" />
<use x="480" y="448" xlink:href="#p" />
<use x="512" y="448" xlink:href="#p" />
<use x="528" y="448" xlink:href="#p" />
<use x="544" y="448" xlink:href="#p" />
<use x="608" y="448" xlink:href="#p" />
<use x="624" y="448" xlink:href="#p" />
<use x="640" y="448" xlink:href="#p" />
<use x="656" y="448" xlink:href="#p" />
<use x="672" y="448" xlink:href="#p" />
<use x="688" y="448" xlink:href="#p" />
<use x="704" y="448" xlink:href="#p" />
<use x="720" y="448" xlink:href="#p" />
<use x="736" y="448" xlink:href="#p" />
<use x="752" y="448" xlink:href="#p" />
<use x="768" y="448" xlink:href="#p" />
<use x="800" y="448" xlink:href="#p" />
<use x="32" y="464" xlink:href="#p" />
<use x="96" y="464" xlink:href="#p" />
<use x="112" y="464" xlink:href="#p" />
<use x="160" y="464" xlink:href="#p" />
<use x="176" y="464" xlink:href="#p" />
<use x="208" y="464" xlink:href="#p" />
<use x="224" y="464" xlink:href="#p" />
<use x="256" y="464" xlink:href="#p" />
<use x="272" y="464" xlink:href="#p" />
<use x="288" y="464" xlink:href="#p" />
<use x="352" y="464" xlink:href="#p" />
<use x="368" y="464" xlink:href="#p" />
<use x="416" y="464" xlink:href="#p" />
<use x="448" y="464" xlink:href="#p" />
<use x="464" y="464" xlink:href="#p" />
<use x="480" y="464" xlink:href="#p" />
<use x="544" y="464" xlink:href="#p" />
<use x="560" y="464" xlink:href="#p" />
<use x="576" y="464" xlink:href="#p" />
<use x="624" y="464" xlink:href="#p" />
<use x="640" y="464" xlink:href="#p" />
<use x="720" y="464" xlink:href="#p" />
<use x="752" y="464" xlink:href="#p" />
<use x="784" y="464" xlink:href="#p" />
<use x="32" y="480" xlink:href="#p" />
<use x="48" y="480" xlink:href="#p" />
<use x="96" y="480" xlink:href="#p" />
<use x="112" y="480" xlink:href="#p" />
<use x="128" y="480" xlink:href="#p" />
<use x="144" y="480" xlink:href="#p" />
<use x="192" y="480" xlink:href="#p" />
<use x="240" y="480" xlink:href="#p" />
<use x="256" y="480" xlink:href="#p" />
<use x="304" y="480" xlink:href="#p" />
<use x="336" y="480" xlink:href="#p" />
<use x="368" y="480" xlink:href="#p" />
<use x="416" y="480" xlink:href="#p" />
<use x="432" y="480" xlink:href="#p" />
<use x="496" y="480" xlink:href="#p" />
<use x="592" y="480" xlink:href="#p" />
<use x="608" y="480" xlink:href="#p" />
<use x="624" y="480" xlink:href="#p" />
<use x="688" y="480" xlink:href="#p" />
<use x="704" y="480" xlink:href="#p" />
<use x="736" y="480" xlink:href="#p" />
<use x="752" y="480" xlink:href="#p" />
<use x="768" y="480" xlink:href="#p" />
<use x="32" y="496" xlink:href="#p" />
<use x="48" y="496" xlink:href="#p" />
<use x="96" y="496" xlink:href="#p" />
<use x="112" y="496" xlink:href="#p" />
<use x="176" y="496" xlink:href="#p" />
<use x="224" y="496" xlink:href="#p" />
<use x="272" y="496" xlink:href="#p" />
<use x="320" y="496" xlink:href="#p" />
<use x="368" y="496" xlink:href="#p" />
<use x="384" y="496" xlink:href="#p" />
<use x="416" y="496" xlink:href="#p" />
<use x="448" y="496" xlink:href="#p" />
<use x="480" y="496" xlink:href="#p" />
<use x="544" y="496" xlink:href="#p" />
<use x="608" y="496" xlink:href="#p" />
<use x="624" y="496" xlink:href="#p" />
<use x="672" y="496" xlink:href="#p" />
<use x="736" y="496" xlink:href="#p" />
<use x="752" y="496" xlink:href="#p" />
<use x="784" y="496" xlink:href="#p" />
<use x="32" y="512" xlink:href="#p" />
<use x="80" y="512" xlink:href="#p" />
<use x="112" y="512" xlink:href="#p" />
<use x="128" y="512" xlink:href="#p" />
<use x="160" y="512" xlink:href="#p" />
<use x="208" y="512" xlink:href="#p" />
<use x="256" y="512" xlink:href="#p" />
<use x="336" y="512" xlink:href="#p" />
<use x="384" y="512" xlink:href="#p" />
<use x="416" y="512" xlink:href="#p" />
<use x="480" y="512" xlink:href="#p" />
<use x="560" y="512" xlink:href="#p" />
<use x="576" y="512" xlink:href="#p" />
<use x="608" y="512" xlink:href="#p" />
<use x="640" y="512" xlink:href="#p" />
<use x="656" y="512" xlink:href="#p" />
<use x="704" y="512" xlink:href="#p" />
<use x="752" y="512" xlink:href="#p" />
<use x="784" y="512" xlink:href="#p" />
<use x="800" y="512" xlink:href="#p" />
<use x="32" y="528" xlink:href="#p" />
<use x="48" y="528" xlink:href="#p" />
<use x="80" y="528" xlink:href="#p" />
<use x="144" y="528" xlink:href="#p" />
<use x="192" y="528" xlink:href="#p" />
<use x="208" y="528" xlink:href="#p" />
<use x="240" y="528" xlink:href="#p" />
<use x="272" y="528" xlink:href="#p" />
<use x="304" y="528" xlink:href="#p" />
<use x="320" y="528" xlink:href="#p" />
<use x="368" y="528" xlink:href="#p" />
<use x="416" y="528" xlink:href="#p" />
<use x="448" y="528" xlink:href="#p" />
<use x="512" y="528" xlink:href="#p" />
<use x="528" y="528" xlink:href="#p" />
<use x="560" y="528" xlink:href="#p" />
<use x="592" y="528" xlink:href="#p" />
<use x="704" y="528" xlink:href="#p" />
<use x="768" y="528" xlink:href="#p" />
<use x="800" y="528" xlink:href="#p" />
<use x="32" y="544" xlink:href="#p" />
<use x="48" y="544" xlink:href="#p" />
<use x="64" y="544" xlink:href="#p" />
<use x="80" y="544" xlink:href="#p" />
<use x="96" y="544" xlink:href="#p" />
<use x="128" y="544" xlink:href="#p" />
<use x="160" y="544" xlink:href="#p" />
<use x="176" y="544" xlink:href="#p" />
<use x="256" y="544" xlink:href="#p" />
<use x="272" y="544" xlink:href="#p" />
<use x="288" y="544" xlink:href="#p" />
<use x="304" y="544" xlink:href="#p" />
<use x="368" y="544" xlink:href="#p" />
<use x="416" y="544" xlink:href="#p" />
<use x="432" y="544" xlink:href="#p" />
<use x="448" y="544" xlink:href="#p" />
<use x="464" y="544" xlink:href="#p" />
<use x="480" y="544" xlink:href="#p" />
<use x="496" y="544" xlink:href="#p" />
<use x="544" y="544" xlink:href="#p" />
<use x="560" y="544" xlink:href="#p" />
<use x="624" y="544" xlink:href="#p" />
<use x="656" y="544" xlink:href="#p" />
<use x="672" y="544" xlink:href="#p" />
<use x="688" y="544" xlink:href="#p" />
<use x="720" y="544" xlink:href="#p" />
<use x="736" y="544" xlink:href="#p" />
<use x="752" y="544" xlink:href="#p" />
<use x="48" y="560" xlink:href="#p" />
<use x="80" y="560" xlink:href="#p" />
<use x="176" y="560" xlink:href="#p" />
<use x="224" y="560" xlink:href="#p" />
<use x="272" y="560" xlink:href="#p" />
<use x="288" y="560" xlink:href="#p" />
<use x="352" y="560" xlink:href="#p" />
<use x="368" y="560" xlink:href="#p" />
<use x="384" y="560" xlink:href="#p" />
<use x="416" y="560" xlink:href="#p" />
<use x="448" y="560" xlink:href="#p" />
<use x="464" y="560" xlink:href="#p" />
<use x="512" y="560" xlink:href="#p" />
<use x="528" y="560" xlink:href="#p" />
<use x="544" y="560" xlink:href="#p" />
<use x="560" y="560" xlink:href="#p" />
<use x="576" y="560" xlink:href="#p" />
<use x="592" y="560" xlink:href="#p" />
<use x="608" y="560" xlink:href="#p" />
<use x="640" y="560" xlink:href="#p" />
<use x="656" y="560" xlink:href="#p" />
<use x="672" y="560" xlink:href="#p" />
<use x="688" y="560" xlink:href="#p" />
<use x="720" y="560" xlink:href="#p" />
<use x="768" y="560" xlink:href="#p" />
<use x="800" y="560" xlink:href="#p" />
<use x="48" y="576" xlink:href="#p" />
<use x="80" y="576" xlink:href="#p" />
<use x="112" y="576" xlink:href="#p" />
<use x="128" y="576" xlink:href="#p" />
<use x="176" y="576" xlink:href="#p" />
<use x="192" y="576" xlink:href="#p" />
<use x="320" y="576" xlink:href="#p" />
<use x="336" y="576" xlink:href="#p" />
<use x="368" y="576" xlink:href="#p" />
<use x="432" y="576" xlink:href="#p" />
<use x="464" y="576" xlink:href="#p" />
<use x="480" y="576" xlink:href="#p" />
<use x="496" y="576" xlink:href="#p" />
<use x="512" y="576" xlink:href="#p" />
<use x="528" y="576" xlink:href="#p" />
<use x="544" y="576" xlink:href="#p" />
<use x="608" y="576" xlink:href="#p" />
<use x="624" y="576" xlink:href="#p" />
<use x="640" y="576" xlink:href="#p" />
<use x="656" y="576" xlink:href="#p" />
<use x="672" y="576" xlink:href="#p" />
<use x="688" y="576" xlink:href="#p" />
<use x="704" y="576" xlink:href="#p" />
<use x="720" y="576" xlink:href="#p" />
<use x="736" y="576" xlink:href="#p" />
<use x="768" y="576" xlink:href="#p" />
<use x="784" y="576" xlink:href="#p" />
<use x="32" y="592" xlink:href="#p" />
<use x="48" y="592" xlink:href="#p" />
<use x="64" y="592" xlink:href="#p" />
<use x="96" y="592" xlink:href="#p" />
<use x="144" y="592" xlink:href="#p" />
<use x="208" y="592" xlink:href="#p" />
<use x="224" y="592" xlink:href="#p" />
<use x="240" y="592" xlink:href="#p" />
<use x="272" y="592" xlink:href="#p" />
<use x="288" y="592" xlink:href="#p" />
<use x="304" y="592" xlink:href="#p" />
<use x="320" y="592" xlink:href="#p" />
<use x="368" y="592" xlink:href="#p" />
<use x="384" y="592" xlink:href="#p" />
<use x="416" y="592" xlink:href="#p" />
<use x="432" y="592" xlink:href="#p" />
<use x="464" y="592" xlink:href="#p" />
<use x="528" y="592" xlink:href="#p" />
<use x="544" y="592" xlink:href="#p" />
<use x="576" y="592" xlink:href="#p" />
<use x="592" y="592" xlink:href="#p" />
<use x="656" y="592" xlink:href="#p" />
<use x="672" y="592" xlink:href="#p" />
<use x="720" y="592" xlink:href="#p" />
<use x="752" y="592" xlink:href="#p" />
<use x="784" y="592" xlink:href="#p" />
<use x="800" y="592" xlink:href="#p" />
<use x="32" y="608" xlink:href="#p" />
<use x="48" y="608" xlink:href="#p" />
<use x="64" y="608" xlink:href="#p" />
<use x="80" y="608" xlink:href="#p" />
<use x="96" y="608" xlink:href="#p" />
<use x="112" y="608" xlink:href="#p" />
<use x="128" y="608" xlink:href="#p" />
<use x="144" y="608" xlink:href="#p" />
<use x="160" y="608" xlink:href="#p" />
<use x="224" y="608" xlink:href="#p" />
<use x="272" y="608" xlink:href="#p" />
<use x="320" y="608" xlink:href="#p" />
<use x="368" y="608" xlink:href="#p" />
<use x="416" y="608" xlink:href="#p" />
<use x="464" y="608" xlink:href="#p" />
<use x="480" y="608" xlink:href="#p" />
<use x="512" y="608" xlink:href="#p" />
<use x="528" y="608" xlink:href="#p" />
<use x="560" y="608" xlink:href="#p" />
<use x="576" y="608" xlink:href="#p" />
<use x="592" y="608" xlink:href="#p" />
<use x="608" y="608" xlink:href="#p" />
<use x="624" y="608" xlink:href="#p" />
<use x="656" y="608" xlink:href="#p" />
<use x="672" y="608" xlink:href="#p" />
<use x="688" y="608" xlink:href="#p" />
<use x="752" y="608" xlink:href="#p" />
<use x="768" y="608" xlink:href="#p" />
<use x="800" y="608" xlink:href="#p" />
<use x="48" y="624" xlink:href="#p" />
<use x="64" y="624" xlink:href="#p" />
<use x="80" y="624" xlink:href="#p" />
<use x="160" y="624" xlink:href="#p" />
<use x="176" y="624" xlink:href="#p" />
<use x="192" y="624" xlink:href="#p" />
<use x="208" y="624" xlink:href="#p" />
<use x="240" y="624" xlink:href="#p" />
<use x="288" y="624" xlink:href="#p" />
<use x="304" y="624" xlink:href="#p" />
<use x="320" y="624" xlink:href="#p" />
<use x="336" y="624" xlink:href="#p" />
<use x="352" y="624" xlink:href="#p" />
<use x="384" y="624" xlink:href="#p" />
<use x="400" y="624" xlink:href="#p" />
<use x="416" y="624" xlink:href="#p" />
<use x="496" y="624" xlink:href="#p" />
<use x="512" y="624" xlink:href="#p" />
<use x="528" y="624" xlink:href="#p" />
<use x="592" y="624" xlink:href="#p" />
<use x="624" y="624" xlink:href="#p" />
<use x="688" y="624" xlink:href="#p" />
<use x="736" y="624" xlink:href="#p" />
<use x="48" y="640" xlink:href="#p" />
<use x="112" y="640" xlink:href="#p" />
<use x="128" y="640" xlink:href="#p" />
<use x="160" y="640" xlink:href="#p" />
<use x="176" y="640" xlink:href="#p" />
<use x="192" y="640" xlink:href="#p" />
<use x="272" y="640" xlink:href="#p" />
<use x="288" y="640" xlink:href="#p" />
<use x="352" y="640" xlink:href="#p" />
<use x="368" y="640" xlink:href="#p" />
<use x="416" y="640" xlink:href="#p" />
<use x="464" y="640" xlink:href="#p" />
<use x="480" y="640" xlink:href="#p" />
<use x="512" y="640" xlink:href="#p" />
<use x="560" y="640" xlink:href="#p" />
<use x="576" y="640" xlink:href="#p" />
<use x="592" y="640" xlink:href="#p" />
<use x="624" y="640" xlink:href="#p" />
<use x="640" y="640" xlink:href="#p" />
<use x="656" y="640" xlink:href="#p" />
<use x="704" y="640" xlink:href="#p" />
<use x="752" y="640" xlink:href="#p" />
<use x="784" y="640" xlink:href="#p" />
<use x="800" y="640" xlink:href="#p" />
<use x="48" y="656" xlink:href="#p" />
<use x="64" y="656" xlink:href="#p" />
<use x="80" y="656" xlink:href="#p" />
<use x="144" y="656" xlink:href="#p" />
<use x="160" y="656" xlink:href="#p" />
<use x="192" y="656" xlink:href="#p" />
<use x="208" y="656" xlink:href="#p" />
<use x="240" y="656" xlink:href="#p" />
<use x="256" y="656" xlink:href="#p" />
<use x="288" y="656" xlink:href="#p" />
<use x="304" y="656" xlink:href="#p" />
<use x="320" y="656" xlink:href="#p" />
<use x="336" y="656" xlink:href="#p" />
<use x="352" y="656" xlink:href="#p" />
<use x="416" y="656" xlink:href="#p" />
<use x="512" y="656" xlink:href="#p" />
<use x="560" y="656" xlink:href="#p" />
<use x="576" y="656" xlink:href="#p" />
<use x="592" y="656" xlink:href="#p" />
<use x="672" y="656" xlink:href="#p" />
<use x="704" y="656" xlink:href="#p" />
<use x="720" y="656" xlink:href="#p" />
<use x="784" y="656" xlink:href="#p" />
<use x="800" y="656" xlink:href="#p" />
<use x="32" y="672" xlink:href="#p" />
<use x="48" y="672" xlink:href="#p" />
<use x="64" y="672" xlink:href="#p" />
<use x="128" y="672" xlink:href="#p" />
<use x="144" y="672" xlink:href="#p" />
<use x="160" y="672" xlink:href="#p" />
<use x="240" y="672" xlink:href="#p" />
<use x="256" y="672" xlink:href="#p" />
<use x="272" y="672" xlink:href="#p" />
<use x="288" y="672" xlink:href="#p" />
<use x="320" y="672" xlink:href="#p" />
<use x="336" y="672" xlink:href="#p" />
<use x="352" y="672" xlink:href="#p" />
<use x="384" y="672" xlink:href="#p" />
<use x="400" y="672" xlink:href="#p" />
<use x="416" y="672" xlink:href="#p" />
<use x="432" y="672" xlink:href="#p" />
<use x="448" y="672" xlink:href="#p" />
<use x="464" y="672" xlink:href="#p" />
<use x="512" y="672" xlink:href="#p" />
<use x="608" y="672" xlink:href="#p" />
<use x="656" y="672" xlink:href="#p" />
<use x="672" y="672" xlink:href="#p" />
<use x="688" y="672" xlink:href="#p" />
<use x="704" y="672" xlink:href="#p" />
<use x="720" y="672" xlink:href="#p" />
<use x="736" y="672" xlink:href="#p" />
<use x="784" y="672" xlink:href="#p" />
<use x="160" y="688" xlink:href="#p" />
<use x="176" y="688" xlink:href="#p" />
<use x="224" y="688" xlink:href="#p" />
<use x="320" y="688" xlink:href="#p" />
<use x="336" y="688" xlink:href="#p" />
<use x="384" y="688" xlink:href="#p" />
<use x="448" y="688" xlink:href="#p" />
<use x="464" y="688" xlink:href="#p" />
<use x="480" y="688" xlink:href="#p" />
<use x="560" y="688" xlink:href="#p" />
<use x="576" y="688" xlink:href="#p" />
<use x="640" y="688" xlink:href="#p" />
<use x="656" y="688" xlink:href="#p" />
<use x="672" y="688" xlink:href="#p" />
<use x="736" y="688" xlink:href="#p" />
<use x="768" y="688" xlink:href="#p" />
<use x="784" y="688" xlink:href="#p" />
<use x="32" y="704" xlink:href="#p" />
<use x="48" y="704" xlink:href="#p" />
<use x="64" y="704" xlink:href="#p" />
<use x="80" y="704" xlink:href="#p" />
<use x="96" y="704" xlink:href="#p" />
<use x="112" y="704" xlink:href="#p" />
<use x="128" y="704" xlink:href="#p" />
<use x="160" y="704" xlink:href="#p" />
<use x="208" y="704" xlink:href="#p" />
<use x="240" y="704" xlink:href="#p" />
<use x="256" y="704" xlink:href="#p" />
<use x="288" y="704" xlink:href="#p" />
<use x="304" y="704" xlink:href="#p" />
<use x="336" y="704" xlink:href="#p" />
<use x="368" y="704" xlink:href="#p" />
<use x="384" y="704" xlink:href="#p" />
<use x="416" y="704" xlink:href="#p" />
<use x="448" y="704" xlink:href="#p" />
<use x="464" y="704" xlink:href="#p" />
<use x="496" y="704" xlink:href="#p" />
<use x="512" y="704" xlink:href="#p" />
<use x="576" y="704" xlink:href="#p" />
<use x="608" y="704" xlink:href="#p" />
<use x="624" y="704" xlink:href="#p" />
<use x="640" y="704" xlink:href="#p" />
<use x="656" y="704" xlink:href="#p" />
<use x="672" y="704" xlink:href="#p" />
<use x="704" y="704" xlink:href="#p" />
<use x="736" y="704" xlink:href="#p" />
<use x="768" y="704" xlink:href="#p" />
<use x="32" y="720" xlink:href="#p" />
<use x="128" y="720" xlink:href="#p" />
<use x="176" y="720" xlink:href="#p" />
<use x="224" y="720" xlink:href="#p" />
<use x="256" y="720" xlink:href="#p" />
<use x="272" y="720" xlink:href="#p" />
<use x="384" y="720" xlink:href="#p" />
<use x="448" y="720" xlink:href="#p" />
<use x="464" y="720" xlink:href="#p" />
<use x="512" y="720" xlink:href="#p" />
<use x="544" y="720" xlink:href="#p" />
<use x="672" y="720" xlink:href="#p" />
<use x="736" y="720" xlink:href="#p" />
<use x="784" y="720" xlink:href="#p" />
<use x="800" y="720" xlink:href="#p" />
<use x="32" y="736" xlink:href="#p" />
<use x="64" y="736" xlink:href="#p" />
<use x="80" y="736" xlink:href="#p" />
<use x="96" y="736" xlink:href="#p" />
<use x="128" y="736" xlink:href="#p" />
<use x="160" y="736" xlink:href="#p" />
<use x="208" y="736" xlink:href="#p" />
<use x="224" y="736" xlink:href="#p" />
<use x="240" y="736" xlink:href="#p" />
<use x="256" y="736" xlink:href="#p" />
<use x="304" y="736" xlink:href="#p" />
<use x="336" y="736" xlink:href="#p" />
<use x="384" y="736" xlink:href="#p" />
<use x="400" y="736" xlink:href="#p" />
<use x="416" y="736" xlink:href="#p" />
<use x="432" y="736" xlink:href="#p" />
<use x="448" y="736" xlink:href="#p" />
<use x="512" y="736" xlink:href="#p" />
<use x="528" y="736" xlink:href="#p" />
<use x="576" y="736" xlink:href="#p" />
<use x="608" y="736" xlink:href="#p" />
<use x="672" y="736" xlink:href="#p" />
<use x="688" y="736" xlink:href="#p" />
<use x="704" y="736" xlink:href="#p" />
<use x="720" y="736" xlink:href="#p" />
<use x="736" y="736" xlink:href="#p" />
<use x="768" y="736" xlink:href="#p" />
<use x="32" y="752" xlink:href="#p" />
<use x="64" y="752" xlink:href="#p" />
<use x="80" y="752" xlink:href="#p" />
<use x="96" y="752" xlink:href="#p" />
<use x="128" y="752" xlink:href="#p" />
<use x="160" y="752" xlink:href="#p" />
<use x="176" y="752" xlink:href="#p" />
<use x="192" y="752" xlink:href="#p" />
<use x="224" y="752" xlink:href="#p" />
<use x="272" y="752" xlink:href="#p" />
<use x="320" y="752" xlink:href="#p" />
<use x="368" y="752" xlink:href="#p" />
<use x="416" y="752" xlink:href="#p" />
<use x="448" y="752" xlink:href="#p" />
<use x="496" y="752" xlink:href="#p" />
<use x="512" y="752" xlink:href="#p" />
<use x="528" y="752" xlink:href="#p" />
<use x="544" y="752" xlink:href="#p" />
<use x="592" y="752" xlink:href="#p" />
<use x="624" y="752" xlink:href="#p" />
<use x="656" y="752" xlink:href="#p" />
<use x="688" y="752" xlink:href="#p" />
<use x="704" y="752" xlink:href="#p" />
<use x="720" y="752" xlink:href="#p" />
<use x="736" y="752" xlink:href="#p" />
<use x="32" y="768" xlink:href="#p" />
<use x="64" y="768" xlink:href="#p" />
<use x="80" y="768" xlink:href="#p" />
<use x="96" y="768" xlink:href="#p" />
<use x="128" y="768" xlink:href="#p" />
<use x="160" y="768" xlink:href="#p" />
<use x="176" y="768" xlink:href="#p" />
<use x="208" y="768" xlink:href="#p" />
<use x="224" y="768" xlink:href="#p" />
<use x="336" y="768" xlink:href="#p" />
<use x="368" y="768" xlink:href="#p" />
<use x="384" y="768" xlink:href="#p" />
<use x="400" y="768" xlink:href="#p" />
<use x="416" y="768" xlink:href="#p" />
<use x="448" y="768" xlink:href="#p" />
<use x="496" y="768" xlink:href="#p" />
<use x="544" y="768" xlink:href="#p" />
<use x="560" y="768" xlink:href="#p" />
<use x="576" y="768" xlink:href="#p" />
<use x="608" y="768" xlink:href="#p" />
<use x="624" y="768" xlink:href="#p" />
<use x="640" y="768" xlink:href="#p" />
<use x="656" y="768" xlink:href="#p" />
<use x="688" y="768" xlink:href="#p" />
<use x="720" y="768" xlink:href="#p" />
<use x="752" y="768" xlink:href="#p" />
<use x="768" y="768" xlink:href="#p" />
<use x="800" y="768" xlink:href="#p" />
<use x="32" y="784" xlink:href="#p" />
<use x="128" y="784" xlink:href="#p" />
<use x="160" y="784" xlink:href="#p" />
<use x="224" y="784" xlink:href="#p" />
<use x="240" y="784" xlink:href="#p" />
<use x="272" y="784" xlink:href="#p" />
<use x="304" y="784" xlink:href="#p" />
<use x="320" y="784" xlink:href="#p" />
<use x="400" y="784" xlink:href="#p" />
<use x="416" y="784" xlink:href="#p" />
<use x="432" y="784" xlink:href="#p" />
<use x="448" y="784" xlink:href="#p" />
<use x="480" y="784" xlink:href="#p" />
<use x="528" y="784" xlink:href="#p" />
<use x="560" y="784" xlink:href="#p" />
<use x="592" y="784" xlink:href="#p" />
<use x="656" y="784" xlink:href="#p" />
<use x="672" y="784" xlink:href="#p" />
<use x="688" y="784" xlink:href="#p" />
<use x="704" y="784" xlink:href="#p" />
<use x="720" y="784" xlink:href="#p" />
<use x="736" y="784" xlink:href="#p" />
<use x="752" y="784" xlink:href="#p" />
<use x="800" y="784" xlink:href="#p" />
<use x="32" y="800" xlink:href="#p" />
<use x="48" y="800" xlink:href="#p" />
<use x="64" y="800" xlink:href="#p" />
<use x="80" y="800" xlink:href="#p" />
<use x="96" y="800" xlink:href="#p" />
<use x="112" y="800" xlink:href="#p" />
<use x="128" y="800" xlink:href="#p" />
<use x="160" y="800" xlink:href="#p" />
<use x="176" y="800" xlink:href="#p" />
<use x="208" y="800" xlink:href="#p" />
<use x="224" y="800" xlink:href="#p" />
<use x="256" y="800" xlink:href="#p" />
<use x="272" y="800" xlink:href="#p" />
<use x="288" y="800" xlink:href="#p" />
<use x="384" y="800" xlink:href="#p" />
<use x="400" y="800" xlink:href="#p" />
<use x="464" y="800" xlink:href="#p" />
<use x="560" y="800" xlink:href="#p" />
<use x="576" y="800" xlink:href="#p" />
<use x="624" y="800" xlink:href="#p" />
<use x="656" y="800" xlink:href="#p" />
<use x="720" y="800" xlink:href="#p" />
<use x="752" y="800" xlink:href="#p" />
<use x="784" y="800" xlink:href="#p" />
<use x="800" y="800" xlink:href="#p" />
</g>
</svg>