<?xml version="1.0" encoding="utf-8"?>
<!DOCTYPE svg PUBLIC "-//W3C//DTD SVG 20010904//EN" "http://www.w3.org/TR/2001/REC-SVG-20010904/DTD/svg10.dtd">
<svg xmlns="http://www.w3.org/2000/svg" xml:space="preserve" xmlns:xlink="http://www.w3.org/1999/xlink" width="296" height="296" viewBox="0 0 296 296">
<desc></desc>
<rect width="296" height="296" fill="#ffffff" cx="0" cy="0" />
<defs>
<rect id="p" width="8" height="8" />
<circle id="circle" r="4" stroke-width="0" fill="000000" />
<rect id="hor" width="8" height="2" />
<rect id="ver" width="2" height="8" />
<polygon id="3d1" points="0,0 8,0 0,8" stroke-width="0" fill="000000" />
<polygon id="3d2" points="0,8 8,0 8,8" stroke-width="0" fill="#808080" />
</defs>
<g fill="#000000">
<use x="16" y="16" xlink:href="#p" />
<use x="24" y="16" xlink:href="#p" />
<use x="32" y="16" xlink:href="#p" />
<use x="40" y="16" xlink:href="#p" />
<use x="48" y="16" xlink:href="#p" />
<use x="56" y="16" xlink:href="#p" />
<use x="64" y="16" xlink:href="#p" />
<use x="80" y="16" xlink:href="#p" />
<use x="96" y="16" xlink:href="#p" />
<use x="112" y="16" xlink:href="#p" />
<use x="120" y="16" xlink:href="#p" />
<use x="136" y="16" xlink:href="#p" />
<use x="144" y="16" xlink:href="#p" />
<use x="160" y="16" xlink:href="#p" />
<use x="168" y="16" xlink:href="#p" />
<use x="176" y="16" xlink:href="#p" />
<use x="184" y="16" xlink:href="#p" />
<use x="192" y="16" xlink:href="#p" />
<use x="200" y="16" xlink:href="#p" />
<use x="224" y="16" xlink:href="#p" />
<use x="232" y="16" xlink:href="#p" />
<use x="240" y="16" xlink:href="#p" />
<use x="248" y="16" xlink:href="#p" />
<use x="256" y="16" xlink:href="#p" />
<use x="264" y="16" xlink:href="#p" />
<use x="272" y="16" xlink:href="#p" />
<use x="16" y="24" xlink:href="#p" />
<use x="64" y="24" xlink:href="#p" />
<use x="96" y="24" xlink:href="#p" />
<use x="104" y="24" xlink:href="#p" />
<use x="128" y="24" xlink:href="#p" />
<use x="136" y="24" xlink:href="#p" />
<use x="160" y="24" xlink:href="#p" />
<use x="184" y="24" xlink:href="#p" />
<use x="208" y="24" xlink:href="#p" />
<use x="224" y="24" xlink:href="#p" />
<use x="272" y="24" xlink:href="#p" />
<use x="16" y="32" xlink:href="#p" />
<use x="32" y="32" xlink:href="#p" />
<use x="40" y="32" xlink:href="#p" />
<use x="48" y="32" xlink:href="#p" />
<use x="64" y="32" xlink:href="#p" />
<use x="104" y="32" xlink:href="#p" />
<use x="120" y="32" xlink:href="#p" />
<use x="136" y="32" xlink:href="#p" />
<use x="144" y="32" xlink:href="#p" />
<use x="168" y="32" xlink:href="#p" />
<use x="176" y="32" xlink:href="#p" />
<use x="184" y="32" xlink:href="#p" />
<use x="192" y="32" xlink:href="#p" />
<use x="200" y="32" xlink:href="#p" />
<use x="224" y="32" xlink:href="#p" />
<use x="240" y="32" xlink:href="#p" />
<use x="248" y="32" xlink:href="#p" />
<use x="256" y="32" xlink:href="#p" />
<use x="272" y="32" xlink:href="#p" />
<use x="16" y="40" xlink:href="#p" />
<use x="32" y="40" xlink:href="#p" />
<use x="40" y="40" xlink:href="#p" />
<use x="48" y="40" xlink:href="#p" />
<use x="64" y="40" xlink:href="#p" />
<use x="96" y="40" xlink:href="#p" />
<use x="112" y="40" xlink:href="#p" />
<use x="120" y="40" xlink:href="#p" />
<use x="136" y="40" xlink:href="#p" />
<use x="160" y="40" xlink:href="#p" />
<use x="168" y="40" xlink:href="#p" />
<use x="184" y="40" xlink:href="#p" />
<use x="200" y="40" xlink:href="#p" />
<use x="208" y="40" xlink:href="#p" />
<use x="224" y="40" xlink:href="#p" />
<use x="240" y="40" xlink:href="#p" />
<use x="248" y="40" xlink:href="#p" />
<use x="256" y="40" xlink:href="#p" />
<use x="272" y="40" xlink:href="#p" />
<use x="16" y="48" xlink:href="#p" />
<use x="32" y="48" xlink:href="#p" />
<use x="40" y="48" xlink:href="#p" />
<use x="48" y="48" xlink:href="#p" />
<use x="64" y="48" xlink:href="#p" />
<use x="80" y="48" xlink:href="#p" />
<use x="104" y="48" xlink:href="#p" />
<use x="112" y="48" xlink:href="#p" />
<use x="120" y="48" xlink:href="#p" />
<use x="128" y="48" xlink:href="#p" />
<use x="176" y="48" xlink:href="#p" />
<use x="184" y="48" xlink:href="#p" />
<use x="192" y="48" xlink:href="#p" />
<use x="224" y="48" xlink:href="#p" />
<use x="240" y="48" xlink:href="#p" />
<use x="248" y="48" xlink:href="#p" />
<use x="256" y="48" xlink:href="#p" />
<use x="272" y="48" xlink:href="#p" />
<use x="16" y="56" xlink:href="#p" />
<use x="64" y="56" xlink:href="#p" />
<use x="80" y="56" xlink:href="#p" />
<use x="88" y="56" xlink:href="#p" />
<use x="96" y="56" xlink:href="#p" />
<use x="104" y="56" xlink:href="#p" />
<use x="128" y="56" xlink:href="#p" />
<use x="136" y="56" xlink:href="#p" />
<use x="152" y="56" xlink:href="#p" />
<use x="160" y="56" xlink:href="#p" />
<use x="168" y="56" xlink:href="#p" />
<use x="200" y="56" xlink:href="#p" />
<use x="208" y="56" xlink:href="#p" />
<use x="224" y="56" xlink:href="#p" />
<use x="272" y="56" xlink:href="#p" />
<use x="16" y="64" xlink:href="#p" />
<use x="24" y="64" xlink:href="#p" />
<use x="32" y="64" xlink:href="#p" />
<use x="40" y="64" xlink:href="#p" />
<use x="48" y="64" xlink:href="#p" />
<use x="56" y="64" xlink:href="#p" />
<use x="64" y="64" xlink:href="#p" />
<use x="80" y="64" xlink:href="#p" />
<use x="96" y="64" xlink:href="#p" />
<use x="112" y="64" xlink:href="#p" />
<use x="128" y="64" xlink:href="#p" />
<use x="144" y="64" xlink:href="#p" />
<use x="160" y="64" xlink:href="#p" />
<use x="176" y="64" xlink:href="#p" />
<use x="192" y="64" xlink:href="#p" />
<use x="208" y="64" xlink:href="#p" />
<use x="224" y="64" xlink:href="#p" />
<use x="232" y="64" xlink:href="#p" />
<use x="240" y="64" xlink:href="#p" />
<use x="248" y="64" xlink:href="#p" />
<use x="256" y="64" xlink:href="#p" />
<use x="264" y="64" xlink:href="#p" />
<use x="272" y="64" xlink:href="#p" />
<use x="88" y="72" xlink:href="#p" />
<use x="128" y="72" xlink:href="#p" />
<use x="144" y="72" xlink:href="#p" />
<use x="168" y="72" xlink:href="#p" />
<use x="176" y="72" xlink:href="#p" />
<use x="184" y="72" xlink:href="#p" />
<use x="192" y="72" xlink:href="#p" />
<use x="200" y="72" xlink:href="#p" />
<use x="24" y="80" xlink:href="#p" />
<use x="32" y="80" xlink:href="#p" />
<use x="40" y="80" xlink:href="#p" />
<use x="48" y="80" xlink:href="#p" />
<use x="56" y="80" xlink:href="#p" />
<use x="64" y="80" xlink:href="#p" />
<use x="72" y="80" xlink:href="#p" />
<use x="96" y="80" xlink:href="#p" />
<use x="144" y="80" xlink:href="#p" />
<use x="152" y="80" xlink:href="#p" />
<use x="168" y="80" xlink:href="#p" />
<use x="192" y="80" xlink:href="#p" />
<use x="200" y="80" xlink:href="#p" />
<use x="208" y="80" xlink:href="#p" />
<use x="232" y="80" xlink:href="#p" />
<use x="240" y="80" xlink:href="#p" />
<use x="272" y="80" xlink:href="#p" />
<use x="24" y="88" xlink:href="#p" />
<use x="40" y="88" xlink:href="#p" />
<use x="56" y="88" xlink:href="#p" />
<use x="72" y="88" xlink:href="#p" />
<use x="80" y="88" xlink:href="#p" />
<use x="120" y="88" xlink:href="#p" />
<use x="152" y="88" xlink:href="#p" />
<use x="160" y="88" xlink:href="#p" />
<use x="168" y="88" xlink:href="#p" />
<use x="192" y="88" xlink:href="#p" />
<use x="200" y="88" xlink:href="#p" />
<use x="216" y="88" xlink:href="#p" />
<use x="224" y="88" xlink:href="#p" />
<use x="248" y="88" xlink:href="#p" />
<use x="256" y="88" xlink:href="#p" />
<use x="264" y="88" xlink:href="#p" />
<use x="272" y="88" xlink:href="#p" />
<use x="16" y="96" xlink:href="#p" />
<use x="32" y="96" xlink:href="#p" />
<use x="56" y="96" xlink:href="#p" />
<use x="64" y="96" xlink:href="#p" />
<use x="72" y="96" xlink:href="#p" />
<use x="104" y="96" xlink:href="#p" />
<use x="112" y="96" xlink:href="#p" />
<use x="152" y="96" xlink:href="#p" />
<use x="176" y="96" xlink:href="#p" />
<use x="192" y="96" xlink:href="#p" />
<use x="224" y="96" xlink:href="#p" />
<use x="240" y="96" xlink:href="#p" />
<use x="256" y="96" xlink:href="#p" />
<use x="264" y="96" xlink:href="#p" />
<use x="24" y="104" xlink:href="#p" />
<use x="32" y="104" xlink:href="#p" />
<use x="72" y="104" xlink:href="#p" />
<use x="88" y="104" xlink:href="#p" />
<use x="104" y="104" xlink:href="#p" />
<use x="120" y="104" xlink:href="#p" />
<use x="136" y="104" xlink:href="#p" />
<use x="152" y="104" xlink:href="#p" />
<use x="160" y="104" xlink:href="#p" />
<use x="176" y="104" xlink:href="#p" />
<use x="208" y="104" xlink:href="#p" />
<use x="240" y="104" xlink:href="#p" />
<use x="248" y="104" xlink:href="#p" />
<use x="256" y="104" xlink:href="#p" />
<use x="264" y="104" xlink:href="#p" />
<use x="272" y="104" xlink:href="#p" />
<use x="24" y="112" xlink:href="#p" />
<use x="32" y="112" xlink:href="#p" />
<use x="48" y="112" xlink:href="#p" />
<use x="56" y="112" xlink:href="#p" />
<use x="64" y="112" xlink:href="#p" />
<use x="72" y="112" xlink:href="#p" />
<use x="80" y="112" xlink:href="#p" />
<use x="88" y="112" xlink:href="#p" />
<use x="96" y="112" xlink:href="#p" />
<use x="120" y="112" xlink:href="#p" />
<use x="144" y="112" xlink:href="#p" />
<use x="168" y="112" xlink:href="#p" />
<use x="176" y="112" xlink:href="#p" />
<use x="184" y="112" xlink:href="#p" />
<use x="192" y="112" xlink:href="#p" />
<use x="200" y="112" xlink:href="#p" />
<use x="208" y="112" xlink:href="#p" />
<use x="216" y="112" xlink:href="#p" />
<use x="232" y="112" xlink:href="#p" />
<use x="240" y="112" xlink:href="#p" />
<use x="248" y="112" xlink:href="#p" />
<use x="264" y="112" xlink:href="#p" />
<use x="272" y="112" xlink:href="#p" />
<use x="24" y="120" xlink:href="#p" />
<use x="32" y="120" xlink:href="#p" />
<use x="56" y="120" xlink:href="#p" />
<use x="88" y="120" xlink:href="#p" />
<use x="128" y="120" xlink:href="#p" />
<use x="152" y="120" xlink:href="#p" />
<use x="160" y="120" xlink:href="#p" />
<use x="184" y="120" xlink:href="#p" />
<use x="208" y="120" xlink:href="#p" />
<use x="224" y="120" xlink:href="#p" />
<use x="264" y="120" xlink:href="#p" />
<use x="272" y="120" xlink:href="#p" />
<use x="24" y="128" xlink:href="#p" />
<use x="32" y="128" xlink:href="#p" />
<use x="40" y="128" xlink:href="#p" />
<use x="48" y="128" xlink:href="#p" />
<use x="56" y="128" xlink:href="#p" />
<use x="64" y="128" xlink:href="#p" />
<use x="72" y="128" xlink:href="#p" />
<use x="80" y="128" xlink:href="#p" />
<use x="88" y="128" xlink:href="#p" />
<use x="104" y="128" xlink:href="#p" />
<use x="112" y="128" xlink:href="#p" />
<use x="120" y="128" xlink:href="#p" />
<use x="128" y="128" xlink:href="#p" />
<use x="152" y="128" xlink:href="#p" />
<use x="160" y="128" xlink:href="#p" />
<use x="176" y="128" xlink:href="#p" />
<use x="184" y="128" xlink:href="#p" />
<use x="192" y="128" xlink:href="#p" />
<use x="216" y="128" xlink:href="#p" />
<use x="248" y="128" xlink:href="#p" />
<use x="256" y="128" xlink:href="#p" />
<use x="264" y="128" xlink:href="#p" />
<use x="16" y="136" xlink:href="#p" />
<use x="32" y="136" xlink:href="#p" />
<use x="40" y="136" xlink:href="#p" />
<use x="48" y="136" xlink:href="#p" />
<use x="72" y="136" xlink:href="#p" />
<use x="88" y="136" xlink:href="#p" />
<use x="112" y="136" xlink:href="#p" />
<use x="120" y="136" xlink:href="#p" />
<use x="136" y="136" xlink:href="#p" />
<use x="144" y="136" xlink:href="#p" />
<use x="152" y="136" xlink:href="#p" />
<use x="184" y="136" xlink:href="#p" />
<use x="200" y="136" xlink:href="#p" />
<use x="216" y="136" xlink:href="#p" />
<use x="224" y="136" xlink:href="#p" />
<use x="232" y="136" xlink:href="#p" />
<use x="248" y="136" xlink:href="#p" />
<use x="256" y="136" xlink:href="#p" />
<use x="16" y="144" xlink:href="#p" />
<use x="24" y="144" xlink:href="#p" />
<use x="32" y="144" xlink:href="#p" />
<use x="48" y="144" xlink:href="#p" />
<use x="64" y="144" xlink:href="#p" />
<use x="72" y="144" xlink:href="#p" />
<use x="96" y="144" xlink:href="#p" />
<use x="120" y="144" xlink:href="#p" />
<use x="144" y="144" xlink:href="#p" />
<use x="152" y="144" xlink:href="#p" />
<use x="160" y="144" xlink:href="#p" />
<use x="192" y="144" xlink:href="#p" />
<use x="208" y="144" xlink:href="#p" />
<use x="216" y="144" xlink:href="#p" />
<use x="232" y="144" xlink:href="#p" />
<use x="240" y="144" xlink:href="#p" />
<use x="272" y="144" xlink:href="#p" />
<use x="16" y="152" xlink:href="#p" />
<use x="72" y="152" xlink:href="#p" />
<use x="80" y="152" xlink:href="#p" />
<use x="96" y="152" xlink:href="#p" />
<use x="104" y="152" xlink:href="#p" />
<use x="112" y="152" xlink:href="#p" />
<use x="120" y="152" xlink:href="#p" />
<use x="136" y="152" xlink:href="#p" />
<use x="144" y="152" xlink:href="#p" />
<use x="168" y="152" xlink:href="#p" />
<use x="176" y="152" xlink:href="#p" />
<use x="184" y="152" xlink:href="#p" />
<use x="200" y="152" xlink:href="#p" />
<use x="216" y="152" xlink:href="#p" />
<use x="224" y="152" xlink:href="#p" />
<use x="232" y="152" xlink:href="#p" />
<use x="248" y="152" xlink:href="#p" />
<use x="256" y="152" xlink:href="#p" />
<use x="272" y="152" xlink:href="#p" />
<use x="16" y="160" xlink:href="#p" />
<use x="24" y="160" xlink:href="#p" />
<use x="32" y="160" xlink:href="#p" />
<use x="40" y="160" xlink:href="#p" />
<use x="48" y="160" xlink:href="#p" />
<use x="56" y="160" xlink:href="#p" />
<use x="64" y="160" xlink:href="#p" />
<use x="96" y="160" xlink:href="#p" />
<use x="120" y="160" xlink:href="#p" />
<use x="176" y="160" xlink:href="#p" />
<use x="184" y="160" xlink:href="#p" />
<use x="208" y="160" xlink:href="#p" />
<use x="216" y="160" xlink:href="#p" />
<use x="224" y="160" xlink:href="#p" />
<use x="240" y="160" xlink:href="#p" />
<use x="256" y="160" xlink:href="#p" />
<use x="16" y="168" xlink:href="#p" />
<use x="40" y="168" xlink:href="#p" />
<use x="88" y="168" xlink:href="#p" />
<use x="96" y="168" xlink:href="#p" />
<use x="112" y="168" xlink:href="#p" />
<use x="128" y="168" xlink:href="#p" />
<use x="136" y="168" xlink:href="#p" />
<use x="144" y="168" xlink:href="#p" />
<use x="184" y="168" xlink:href="#p" />
<use x="192" y="168" xlink:href="#p" />
<use x="200" y="168" xlink:href="#p" />
<use x="224" y="168" xlink:href="#p" />
<use x="240" y="168" xlink:href="#p" />
<use x="248" y="168" xlink:href="#p" />
<use x="256" y="168" xlink:href="#p" />
<use x="264" y="168" xlink:href="#p" />
<use x="40" y="176" xlink:href="#p" />
<use x="48" y="176" xlink:href="#p" />
<use x="64" y="176" xlink:href="#p" />
<use x="72" y="176" xlink:href="#p" />
<use x="80" y="176" xlink:href="#p" />
<use x="88" y="176" xlink:href="#p" />
<use x="96" y="176" xlink:href="#p" />
<use x="104" y="176" xlink:href="#p" />
<use x="112" y="176" xlink:href="#p" />
<use x="136" y="176" xlink:href="#p" />
<use x="144" y="176" xlink:href="#p" />
<use x="184" y="176" xlink:href="#p" />
<use x="200" y="176" xlink:href="#p" />
<use x="208" y="176" xlink:href="#p" />
<use x="216" y="176" xlink:href="#p" />
<use x="232" y="176" xlink:href="#p" />
<use x="240" y="176" xlink:href="#p" />
<use x="248" y="176" xlink:href="#p" />
<use x="264" y="176" xlink:href="#p" />
<use x="272" y="176" xlink:href="#p" />
<use x="16" y="184" xlink:href="#p" />
<use x="24" y="184" xlink:href="#p" />
<use x="32" y="184" xlink:href="#p" />
<use x="40" y="184" xlink:href="#p" />
<use x="48" y="184" xlink:href="#p" />
<use x="72" y="184" xlink:href="#p" />
<use x="80" y="184" xlink:href="#p" />
<use x="96" y="184" xlink:href="#p" />
<use x="104" y="184" xlink:href="#p" />
<use x="128" y="184" xlink:href="#p" />
<use x="136" y="184" xlink:href="#p" />
<use x="144" y="184" xlink:href="#p" />
<use x="160" y="184" xlink:href="#p" />
<use x="176" y="184" xlink:href="#p" />
<use x="184" y="184" xlink:href="#p" />
<use x="192" y="184" xlink:href="#p" />
<use x="200" y="184" xlink:href="#p" />
<use x="224" y="184" xlink:href="#p" />
<use x="256" y="184" xlink:href="#p" />
<use x="272" y="184" xlink:href="#p" />
<use x="16" y="192" xlink:href="#p" />
<use x="48" y="192" xlink:href="#p" />
<use x="64" y="192" xlink:href="#p" />
<use x="128" y="192" xlink:href="#p" />
<use x="144" y="192" xlink:href="#p" />
<use x="152" y="192" xlink:href="#p" />
<use x="168" y="192" xlink:href="#p" />
<use x="184" y="192" xlink:href="#p" />
<use x="208" y="192" xlink:href="#p" />
<use x="216" y="192" xlink:href="#p" />
<use x="232" y="192" xlink:href="#p" />
<use x="248" y="192" xlink:href="#p" />
<use x="256" y="192" xlink:href="#p" />
<use x="264" y="192" xlink:href="#p" />
<use x="16" y="200" xlink:href="#p" />
<use x="80" y="200" xlink:href="#p" />
<use x="88" y="200" xlink:href="#p" />
<use x="96" y="200" xlink:href="#p" />
<use x="144" y="200" xlink:href="#p" />
<use x="152" y="200" xlink:href="#p" />
<use x="168" y="200" xlink:href="#p" />
<use x="176" y="200" xlink:href="#p" />
<use x="184" y="200" xlink:href="#p" />
<use x="192" y="200" xlink:href="#p" />
<use x="200" y="200" xlink:href="#p" />
<use x="216" y="200" xlink:href="#p" />
<use x="224" y="200" xlink:href="#p" />
<use x="240" y="200" xlink:href="#p" />
<use x="248" y="200" xlink:href="#p" />
<use x="256" y="200" xlink:href="#p" />
<use x="264" y="200" xlink:href="#p" />
<use x="272" y="200" xlink:href="#p" />
<use x="16" y="208" xlink:href="#p" />
<use x="32" y="208" xlink:href="#p" />
<use x="48" y="208" xlink:href="#p" />
<use x="56" y="208" xlink:href="#p" />
<use x="64" y="208" xlink:href="#p" />
<use x="72" y="208" xlink:href="#p" />
<use x="80" y="208" xlink:href="#p" />
<use x="88" y="208" xlink:href="#p" />
<use x="96" y="208" xlink:href="#p" />
<use x="112" y="208" xlink:href="#p" />
<use x="128" y="208" xlink:href="#p" />
<use x="144" y="208" xlink:href="#p" />
<use x="160" y="208" xlink:href="#p" />
<use x="168" y="208" xlink:href="#p" />
<use x="192" y="208" xlink:href="#p" />
<use x="200" y="208" xlink:href="#p" />
<use x="208" y="208" xlink:href="#p" />
<use x="216" y="208" xlink:href="#p" />
<use x="224" y="208" xlink:href="#p" />
<use x="232" y="208" xlink:href="#p" />
<use x="240" y="208" xlink:href="#p" />
<use x="80" y="216" xlink:href="#p" />
<use x="88" y="216" xlink:href="#p" />
<use x="96" y="216" xlink:href="#p" />
<use x="104" y="216" xlink:href="#p" />
<use x="136" y="216" xlink:href="#p" />
<use x="160" y="216" xlink:href="#p" />
<use x="168" y="216" xlink:href="#p" />
<use x="176" y="216" xlink:href="#p" />
<use x="208" y="216" xlink:href="#p" />
<use x="240" y="216" xlink:href="#p" />
<use x="256" y="216" xlink:href="#p" />
<use x="272" y="216" xlink:href="#p" />
<use x="16" y="224" xlink:href="#p" />
<use x="24" y="224" xlink:href="#p" />
<use x="32" y="224" xlink:href="#p" />
<use x="40" y="224" xlink:href="#p" />
<use x="48" y="224" xlink:href="#p" />
<use x="56" y="224" xlink:href="#p" />
<use x="64" y="224" xlink:href="#p" />
<use x="80" y="224" xlink:href="#p" />
<use x="96" y="224" xlink:href="#p" />
<use x="104" y="224" xlink:href="#p" />
<use x="112" y="224" xlink:href="#p" />
<use x="136" y="224" xlink:href="#p" />
<use x="144" y="224" xlink:href="#p" />
<use x="152" y="224" xlink:href="#p" />
<use x="160" y="224" xlink:href="#p" />
<use x="192" y="224" xlink:href="#p" />
<use x="200" y="224" xlink:href="#p" />
<use x="208" y="224" xlink:href="#p" />
<use x="224" y="224" xlink:href="#p" />
<use x="240" y="224" xlink:href="#p" />
<use x="256" y="224" xlink:href="#p" />
<use x="264" y="224" xlink:href="#p" />
<use x="16" y="232" xlink:href="#p" />
<use x="64" y="232" xlink:href="#p" />
<use x="80" y="232" xlink:href="#p" />
<use x="88" y="232" xlink:href="#p" />
<use x="104" y="232" xlink:href="#p" />
<use x="136" y="232" xlink:href="#p" />
<use x="160" y="232" xlink:href="#p" />
<use x="168" y="232" xlink:href="#p" />
<use x="208" y="232" xlink:href="#p" />
<use x="240" y="232" xlink:href="#p" />
<use x="256" y="232" xlink:href="#p" />
<use x="264" y="232" xlink:href="#p" />
<use x="272" y="232" xlink:href="#p" />
<use x="16" y="240" xlink:href="#p" />
<use x="32" y="240" xlink:href="#p" />
<use x="40" y="240" xlink:href="#p" />
<use x="48" y="240" xlink:href="#p" />
<use x="64" y="240" xlink:href="#p" />
<use x="80" y="240" xlink:href="#p" />
<use x="88" y="240" xlink:href="#p" />
<use x="104" y="240" xlink:href="#p" />
<use x="112" y="240" xlink:href="#p" />
<use x="120" y="240" xlink:href="#p" />
<use x="128" y="240" xlink:href="#p" />
<use x="136" y="240" xlink:href="#p" />
<use x="152" y="240" xlink:href="#p" />
<use x="176" y="240" xlink:href="#p" />
<use x="184" y="240" xlink:href="#p" />
<use x="192" y="240" xlink:href="#p" />
<use x="208" y="240" xlink:href="#p" />
<use x="216" y="240" xlink:href="#p" />
<use x="224" y="240" xlink:href="#p" />
<use x="232" y="240" xlink:href="#p" />
<use x="240" y="240" xlink:href="#p" />
<use x="248" y="240" xlink:href="#p" />
<use x="264" y="240" xlink:href="#p" />
<use x="272" y="240" xlink:href="#p" />
<use x="16" y="248" xlink:href="#p" />
<use x="32" y="248" xlink:href="#p" />
<use x="40" y="248" xlink:href="#p" />
<use x="48" y="248" xlink:href="#p" />
<use x="64" y="248" xlink:href="#p" />
<use x="80" y="248" xlink:href="#p" />
<use x="96" y="248" xlink:href="#p" />
<use x="104" y="248" xlink:href="#p" />
<use x="112" y="248" xlink:href="#p" />
<use x="120" y="248" xlink:href="#p" />
<use x="152" y="248" xlink:href="#p" />
<use x="160" y="248" xlink:href="#p" />
<use x="184" y="248" xlink:href="#p" />
<use x="200" y="248" xlink:href="#p" />
<use x="216" y="248" xlink:href="#p" />
<use x="232" y="248" xlink:href="#p" />
<use x="240" y="248" xlink:href="#p" />
<use x="248" y="248" xlink:href="#p" />
<use x="256" y="248" xlink:href="#p" />
<use x="272" y="248" xlink:href="#p" />
<use x="16" y="256" xlink:href="#p" />
<use x="32" y="256" xlink:href="#p" />
<use x="40" y="256" xlink:href="#p" />
<use x="48" y="256" xlink:href="#p" />
<use x="64" y="256" xlink:href="#p" />
<use x="80" y="256" xlink:href="#p" />
<use x="88" y="256" xlink:href="#p" />
<use x="104" y="256" xlink:href="#p" />
<use x="112" y="256" xlink:href="#p" />
<use x="120" y="256" xlink:href="#p" />
<use x="144" y="256" xlink:href="#p" />
<use x="152" y="256" xlink:href="#p" />
<use x="176" y="256" xlink:href="#p" />
<use x="192" y="256" xlink:href="#p" />
<use x="200" y="256" xlink:href="#p" />
<use x="208" y="256" xlink:href="#p" />
<use x="216" y="256" xlink:href="#p" />
<use x="224" y="256" xlink:href="#p" />
<use x="232" y="256" xlink:href="#p" />
<use x="248" y="256" xlink:href="#p" />
<use x="256" y="256" xlink:href="#p" />
<use x="16" y="264" xlink:href="#p" />
<use x="64" y="264" xlink:href="#p" />
<use x="80" y="264" xlink:href="#p" />
<use x="96" y="264" xlink:href="#p" />
<use x="120" y="264" xlink:href="#p" />
<use x="144" y="264" xlink:href="#p" />
<use x="160" y="264" xlink:href="#p" />
<use x="184" y="264" xlink:href="#p" />
<use x="192" y="264" xlink:href="#p" />
<use x="216" y="264" xlink:href="#p" />
<use x="224" y="264" xlink:href="#p" />
<use x="232" y="264" xlink:href="#p" />
<use x="240" y="264" xlink:href="#p" />
<use x="248" y="264" xlink:href="#p" />
<use x="256" y="264" xlink:href="#p" />
<use x="16" y="272" xlink:href="#p" />
<use x="24" y="272" xlink:href="#p" />
<use x="32" y="272" xlink:href="#p" />
<use x="40" y="272" xlink:href="#p" />
<use x="48" y="272" xlink:href="#p" />
<use x="56" y="272" xlink:href="#p" />
<use x="64" y="272" xlink:href="#p" />
<use x="96" y="272" xlink:href="#p" />
<use x="104" y="272" xlink:href="#p" />
<use x="112" y="272" xlink:href="#p" />
<use x="120" y="272" xlink:href="#p" />
<use x="128" y="272" xlink:href="#p" />
<use x="136" y="272" xlink:href="#p" />
<use x="152" y="272" xlink:href="#p" />
<use x="176" y="272" xlink:href="#p" />
<use x="192" y="272" xlink:href="#p" />
<use x="200" y="272" xlink:href="#p" />
<use x="208" y="272" xlink:href="#p" />
<use x="216" y="272" xlink:href="#p" />
<use x="224" y="272" xlink:href="#p" />
<use x="232" y="272" xlink:href="#p" />
<use x="240" y="272" xlink:href="#p" />
<use x="264" y="272" xlink:href="#p" />
</g>
</svg>